<?xml version="1.0" encoding="UTF-8"?>
<svg version="1.1" xmlns="http://www.w3.org/2000/svg" width="3840" height="2160">
<path d="M0 0 C0.96993896 0.45608643 0.96993896 0.45608643 1.95947266 0.92138672 C28.63560614 13.56037878 54.14520135 28.83032731 77.84326172 46.40185547 C79.95314831 47.96528286 82.07156934 49.51650904 84.19140625 51.06640625 C92.00096299 56.81124967 99.47196246 62.83037492 106.7734375 69.20703125 C109.60189003 71.67420946 112.5034493 74.03381795 115.4375 76.375 C131.77932466 89.69144313 148.02493869 104.88771334 161.0078125 121.5078125 C163.18345995 124.22950479 165.50170099 126.76175808 167.875 129.3125 C178.00768718 140.36634056 186.70431728 152.55112976 195.39013672 164.75048828 C196.92473984 166.89483666 198.47707844 169.02501706 200.03515625 171.15234375 C213.92263394 190.24848114 225.13656048 211.0755155 236 232 C236.47646973 232.9173291 236.95293945 233.8346582 237.44384766 234.77978516 C251.10266159 261.41422657 262.18080616 290.11329306 270 319 C270.30341309 320.11987305 270.60682617 321.23974609 270.91943359 322.39355469 C277.7402328 347.93330259 282.60847601 373.79044846 286 400 C286.15243164 401.13356934 286.30486328 402.26713867 286.46191406 403.43505859 C291.3027264 440.72395105 291.08342553 479.75557893 286 517 C285.69523237 519.3893127 285.39054593 521.77863575 285.0859375 524.16796875 C274.17042567 606.97257943 244.03997028 690.59497317 192.47216797 757.08349609 C190.94892922 759.06648517 189.45725615 761.06997633 187.97265625 763.08203125 C182.05367064 771.0995836 175.92889525 778.84566797 169.40185547 786.37597656 C167.94622873 788.06229302 166.50498726 789.76006328 165.06640625 791.4609375 C154.35935848 804.10025504 143.24105092 815.91674943 131.078125 827.17578125 C128.25579181 829.79388667 125.51475338 832.47299679 122.80859375 835.2109375 C119.93775986 838.10249309 117.00845337 840.77707754 113.8125 843.3125 C110.29477336 846.13441258 106.82450051 848.99260207 103.40991211 851.9387207 C60.61315625 888.74406156 9.575402 916.097301 -43 936 C-44.19850586 936.46994385 -45.39701172 936.9398877 -46.63183594 937.42407227 C-53.53368175 940.04559881 -59.47835181 941.79681163 -66.875 941.5625 C-68.03902344 941.57893555 -68.03902344 941.57893555 -69.2265625 941.59570312 C-76.23835209 941.50746752 -81.3608124 939.15933531 -86.75 934.75 C-92.31482636 927.94854556 -94.13429913 921.35240677 -94.10679626 912.62872314 C-94.10528061 911.34222366 -94.10376495 910.05572418 -94.10220337 908.73023987 C-94.09547478 907.31137048 -94.08866669 905.89250147 -94.08178711 904.47363281 C-94.07822899 902.97340495 -94.07514354 901.47317591 -94.07249451 899.97294617 C-94.06594886 896.74381357 -94.05639189 893.51470877 -94.04459953 890.28559113 C-94.0262545 885.16417551 -94.01669204 880.04276654 -94.00868225 874.92132568 C-93.98457662 860.35783937 -93.94888992 845.79439383 -93.90405273 831.23095703 C-93.87936222 823.18606364 -93.86208437 815.14118663 -93.85249335 807.09626079 C-93.84600959 802.02214161 -93.83057442 796.94815849 -93.80817592 791.8740859 C-93.79629827 788.69058271 -93.79307 785.50711085 -93.79207802 782.32358742 C-93.78996191 780.86651231 -93.78448209 779.40943677 -93.7750473 777.95239067 C-93.58447241 747.28726942 -100.10621607 712.04125688 -122 689 C-123.93853576 687.18959773 -125.8747424 685.5939432 -128 684 C-127.67 683.34 -127.34 682.68 -127 682 C-124.62638682 681.49737296 -122.32645138 681.12276259 -119.92578125 680.80859375 C-118.39408616 680.58962056 -116.86251622 680.36977068 -115.33105469 680.14916992 C-114.10630432 679.976642 -114.10630432 679.976642 -112.85681152 679.80062866 C-82.93081681 675.52953752 -53.15080669 669.22601567 -25 658 C-24.05318359 657.62294922 -23.10636719 657.24589844 -22.13085938 656.85742188 C5.95474557 645.41800594 33.92985172 626.92597308 53 603 C53.7425 602.09507812 54.485 601.19015625 55.25 600.2578125 C96.70767323 548.81638751 108.57964645 473.39951207 102.05029297 408.9753418 C98.29915404 376.81369073 88.13058768 345.31131321 69 319 C68.4946875 318.30148926 67.989375 317.60297852 67.46875 316.88330078 C65.88552354 314.70587934 64.29053606 312.53787357 62.6875 310.375 C62.19596436 309.71153564 61.70442871 309.04807129 61.19799805 308.36450195 C58.92291219 305.34923008 56.99340567 302.99469342 54.01953125 300.6015625 C52 298 52 298 52.04760742 296.04443359 C52.56821737 293.64190146 53.25641992 291.34283773 54 289 C54.4167252 287.37765473 54.82285835 285.75255457 55.21875 284.125 C55.42798096 283.29452148 55.63721191 282.46404297 55.8527832 281.60839844 C65.36089935 243.28900464 62.78233327 200.47061178 47 164 C32.35082602 156.67541301 6.06560373 166.39611688 -8.1875 171 C-34.75314532 179.95262809 -70.82516151 194.82516151 -91 215 C-93.46698504 214.64895282 -95.74695101 214.1847384 -98.15625 213.5859375 C-99.65584129 213.23526247 -101.15543447 212.88459549 -102.6550293 212.53393555 C-103.44517426 212.34455414 -104.23531921 212.15517273 -105.04940796 211.96005249 C-109.16766277 210.97686345 -113.2958965 210.03842685 -117.42578125 209.10546875 C-118.66229179 208.82613243 -118.66229179 208.82613243 -119.92378235 208.54115295 C-130.86250107 206.10032681 -141.89136981 204.44918172 -153 203 C-154.06814941 202.85723633 -155.13629883 202.71447266 -156.23681641 202.56738281 C-159.48977032 202.13675229 -162.74415113 201.72063421 -166 201.3125 C-166.94190186 201.19285889 -167.88380371 201.07321777 -168.85424805 200.94995117 C-184.99077322 199.03247868 -201.17113045 198.81346599 -217.40185547 198.81469727 C-220.60007174 198.81251699 -223.79793827 198.79429574 -226.99609375 198.77539062 C-246.41877925 198.72180887 -265.63427223 200.17601143 -284.875 202.8125 C-286.11169434 202.97919189 -287.34838867 203.14588379 -288.62255859 203.31762695 C-302.47645411 205.24869575 -316.43765892 207.52442878 -330 211 C-330.97195313 211.2371875 -331.94390625 211.474375 -332.9453125 211.71875 C-333.99460937 211.9765625 -335.04390625 212.234375 -336.125 212.5 C-337.70667969 212.88671875 -337.70667969 212.88671875 -339.3203125 213.28125 C-341.9463708 213.88975565 -341.9463708 213.88975565 -344 215 C-348.71565876 213.26057138 -352.63969543 211.07197531 -356.8125 208.25 C-393.79335332 183.85892885 -437.41835599 160.53356349 -483 163 C-485.84443433 164.42221717 -486.06677858 166.48932589 -487.05541992 169.36816406 C-487.30525635 170.13354492 -487.55509277 170.89892578 -487.8125 171.6875 C-488.07458252 172.48768555 -488.33666504 173.28787109 -488.60668945 174.11230469 C-500.43001759 211.30913141 -502.79971422 249.31258061 -492.0859375 286.99609375 C-491.72269287 288.3303853 -491.36060177 289.66499177 -491 291 C-490.70609375 292.06089844 -490.4121875 293.12179687 -490.109375 294.21484375 C-489.95711593 298.09201233 -491.29890516 299.28869356 -493.875 302.125 C-494.70773437 303.08148437 -495.54046875 304.03796875 -496.3984375 305.0234375 C-497.25695312 306.00570313 -498.11546875 306.98796875 -499 308 C-520.10567935 334.29205789 -533.63782109 365.79923385 -539 399 C-539.11714355 399.67369629 -539.23428711 400.34739258 -539.35498047 401.04150391 C-548.7502218 456.70097965 -538.07394374 523.8046632 -511 573 C-510.35904081 574.20555155 -509.71841747 575.41128171 -509.078125 576.6171875 C-502.82733621 588.17196135 -494.96927345 598.09711619 -486.078125 607.734375 C-484.18181669 609.8017788 -482.36970394 611.91750093 -480.5625 614.0625 C-440.55137598 659.51731436 -368.95838079 677.09461416 -311 682 C-312.39563703 684.92429864 -313.62227354 686.74052295 -316.0625 688.875 C-327.9552627 700.52051192 -334.64307411 717.06683099 -338.8125 732.875 C-339.02922363 733.68445068 -339.24594727 734.49390137 -339.46923828 735.32788086 C-340.55665085 739.58318339 -341.05137136 743.34566887 -341.125 747.75 C-341.94771103 750.27492098 -342.479776 751.6482678 -344.70507812 753.15283203 C-350.37463958 755.48759264 -356.0965183 757.34771025 -362 759 C-362.73250977 759.21382324 -363.46501953 759.42764648 -364.21972656 759.64794922 C-373.69278297 762.38614981 -383.21526836 763.93155229 -393 765 C-392.05125 765.61875 -391.1025 766.2375 -390.125 766.875 C-387 769 -387 769 -385 771 C-384.5 773.8125 -384.5 773.8125 -385 777 C-388.0959894 780.39803714 -390.00552726 781.68692525 -394.375 783.0625 C-399.03851617 782.98209455 -402.31333335 781.87886556 -406 779 C-407.67990551 775.89863597 -408.2875593 774.25807192 -407.5 770.8125 C-405.42599629 768.30641219 -402.90549474 767.38635838 -400 766 C-400.70084717 765.91435791 -401.40169434 765.82871582 -402.1237793 765.74047852 C-405.31192944 765.34977513 -408.49971447 764.95616679 -411.6875 764.5625 C-412.79029297 764.42779297 -413.89308594 764.29308594 -415.02929688 764.15429688 C-416.09599609 764.02216797 -417.16269531 763.89003906 -418.26171875 763.75390625 C-419.24100342 763.63345947 -420.22028809 763.5130127 -421.22924805 763.38891602 C-423.8466442 763.02152575 -426.41474783 762.54676123 -429 762 C-428.34 762.99 -427.68 763.98 -427 765 C-427.07047782 768.94675778 -427.15747699 771.15747699 -430 774 C-434.24158146 775.41386049 -437.69975678 775.12805676 -442 774 C-445.75916716 771.94954519 -447.62598016 770.56102976 -450 767 C-450.375 764.5625 -450.375 764.5625 -450 762 C-447.7522146 759.20964571 -446.42269984 758.14089995 -443 757 C-443.9178125 756.49210937 -444.835625 755.98421875 -445.78125 755.4609375 C-460.86180934 747.03537847 -460.86180934 747.03537847 -465 743 C-465 742.34 -465 741.68 -465 741 C-465.58652344 740.73703125 -466.17304688 740.4740625 -466.77734375 740.203125 C-477.52779667 734.38389917 -486.38954767 720.32991107 -492.125 709.8125 C-503.73198534 688.61383376 -524.64716766 669.27541459 -548 662 C-561.04817369 658.23083509 -574.4538097 655.91193239 -587.375 661.4453125 C-590.14633845 662.76117522 -590.14633845 662.76117522 -591.125 665.3125 C-590.85079656 671.20787393 -585.98176469 675.26055899 -582.00683594 679.19824219 C-578.73793052 682.13309887 -575.09220357 684.367546 -571.375 686.6875 C-544.71725714 703.98482039 -526.85455294 731.19903376 -515.41625977 760.5065918 C-504.83500633 787.53614197 -483.98565577 804.48573994 -458.03955078 815.859375 C-439.56646699 823.73726037 -420.38344879 826.22736257 -400.4375 826.25 C-399.66254181 826.25167175 -398.88758362 826.25334351 -398.08914185 826.25506592 C-382.21532606 826.25711317 -366.81180114 824.90508324 -351.32641602 821.28271484 C-348.66259842 820.95899769 -346.6057021 821.42712412 -344 822 C-343.90717922 834.88288219 -343.83617346 847.76568436 -343.79275131 860.64883327 C-343.77190723 866.63148782 -343.74364722 872.61391299 -343.69824219 878.59643555 C-343.65467173 884.37361457 -343.63083899 890.15057343 -343.62049103 895.92790413 C-343.61311981 898.12825039 -343.59872558 900.32858507 -343.57707977 902.5288372 C-343.54789747 905.61901441 -343.54405026 908.7082904 -343.54589844 911.79858398 C-343.53151733 912.70130035 -343.51713623 913.60401672 -343.50231934 914.53408813 C-343.55557889 922.80380499 -346.18434079 929.97624752 -352 936 C-358.15058741 940.67007445 -364.25776352 942.55077216 -371.93359375 942.01171875 C-372.67211578 941.96257828 -373.41063782 941.91343781 -374.17153931 941.86280823 C-382.28063395 941.14224339 -389.39163296 938.4890542 -396.875 935.4375 C-398.27949194 934.88444918 -399.68469489 934.33320087 -401.09057617 933.78369141 C-403.83918149 932.70350927 -406.58096885 931.60848519 -409.31689453 930.49658203 C-412.41172083 929.23903959 -415.5138433 928.00369199 -418.62109375 926.77734375 C-428.23020797 922.92111182 -437.35600592 918.34571486 -446.4609375 913.42578125 C-449.90319787 911.56841003 -453.37943206 909.81458417 -456.90087891 908.11328125 C-471.09976973 901.23688355 -485.08668064 893.32086237 -497.6484375 883.75 C-500.13151476 881.90212855 -502.68515517 880.26046537 -505.3125 878.625 C-519.6289768 869.63653019 -533.30517954 859.32042598 -545.80859375 847.9453125 C-548.22813599 845.79748356 -550.72725234 843.77545783 -553.25 841.75 C-557.68369874 838.1464406 -561.96813436 834.4123536 -566.1875 830.5625 C-566.76467773 830.04204102 -567.34185547 829.52158203 -567.93652344 828.98535156 C-569.33122198 827.69917667 -570.67120069 826.35415001 -572 825 C-572 824.34 -572 823.68 -572 823 C-572.66 823 -573.32 823 -574 823 C-574 822.34 -574 821.68 -574 821 C-574.66 821 -575.32 821 -576 821 C-576 820.34 -576 819.68 -576 819 C-576.66 819 -577.32 819 -578 819 C-578 818.34 -578 817.68 -578 817 C-578.66 817 -579.32 817 -580 817 C-580 816.34 -580 815.68 -580 815 C-580.66 815 -581.32 815 -582 815 C-582 814.34 -582 813.68 -582 813 C-582.66 813 -583.32 813 -584 813 C-584 812.34 -584 811.68 -584 811 C-584.99 810.67 -585.98 810.34 -587 810 C-587 809.34 -587 808.68 -587 808 C-587.66 808 -588.32 808 -589 808 C-590.36176922 806.35648543 -591.68962066 804.68477344 -593 803 C-594.12728516 801.88044922 -594.12728516 801.88044922 -595.27734375 800.73828125 C-598.26240048 797.73609363 -601.01091689 794.59973298 -603.75 791.375 C-604.52899658 790.45956421 -604.52899658 790.45956421 -605.32373047 789.52563477 C-606.37908559 788.28250614 -607.43297453 787.03813122 -608.48535156 785.79248047 C-609.4538117 784.64637564 -610.42431922 783.50199572 -611.39746094 782.35986328 C-612.64692383 780.89162826 -613.88624746 779.41478256 -615.125 777.9375 C-615.82882812 777.10089844 -616.53265625 776.26429688 -617.2578125 775.40234375 C-619 773 -619 773 -620.0546875 770.25390625 C-620.52261719 769.13822266 -620.52261719 769.13822266 -621 768 C-621.99 767.67 -622.98 767.34 -624 767 C-625.25390625 765.42578125 -625.25390625 765.42578125 -626.5625 763.3125 C-628.74006128 759.90437583 -630.99706061 756.59139897 -633.38354492 753.32568359 C-639.00594376 745.62349474 -644.1036106 737.63700112 -649.140625 729.54296875 C-651.003781 726.54923682 -652.93308127 723.61974563 -654.92578125 720.7109375 C-658.64356462 715.16068935 -661.79248295 709.32615808 -664.9375 703.4375 C-665.25648254 702.84095612 -665.57546509 702.24441223 -665.90411377 701.62979126 C-682.46761129 670.55904971 -695.64258501 638.66556001 -706 605 C-706.26828613 604.13020508 -706.53657227 603.26041016 -706.81298828 602.36425781 C-708.27509455 597.59338233 -709.66499608 592.80802164 -711 588 C-711.32226562 586.84757812 -711.64453125 585.69515625 -711.9765625 584.5078125 C-716.9974892 565.52626033 -720.41384933 545.9813378 -723.25 526.5625 C-723.40082031 525.54897461 -723.55164063 524.53544922 -723.70703125 523.49121094 C-726.54574214 503.11514875 -727.3779706 482.74096313 -727.3125 462.1875 C-727.31067719 460.99066589 -727.30885437 459.79383179 -727.30697632 458.56072998 C-727.255971 438.56697675 -726.53523058 418.83778709 -724 399 C-723.91278687 398.31454102 -723.82557373 397.62908203 -723.73571777 396.92285156 C-719.92737615 367.35903929 -714.09742922 338.41279215 -705 310 C-704.57623819 308.66555797 -704.15257602 307.33108429 -703.72900391 305.99658203 C-690.27134319 263.74500661 -672.44049303 221.87314389 -647.1953125 185.20703125 C-645.22134582 182.32335395 -643.34599546 179.40397177 -641.5 176.4375 C-634.09243458 164.73770041 -625.66639568 153.78550302 -617 143 C-616.24976563 142.06542969 -615.49953125 141.13085938 -614.7265625 140.16796875 C-598.75359964 120.47566977 -598.75359964 120.47566977 -589.765625 111.76171875 C-588.05383172 110.05371263 -586.49701712 108.28450387 -584.9375 106.4375 C-576.76397368 96.94566299 -567.59986853 88.03791551 -558 80 C-556.94285335 79.09249196 -555.88698931 78.18348881 -554.83203125 77.2734375 C-551.80828217 74.66570054 -548.77368139 72.07102527 -545.734375 69.48144531 C-544.17214273 68.14703858 -542.61687936 66.80448349 -541.0625 65.4609375 C-527.5386746 53.92811973 -512.74042199 43.90341725 -498 34 C-497.4342627 33.61924316 -496.86852539 33.23848633 -496.28564453 32.84619141 C-486.28385432 26.15769686 -475.85231608 20.25950715 -465.37548828 14.35449219 C-463.40863506 13.23300178 -461.46254913 12.0888625 -459.52734375 10.9140625 C-435.9234005 -3.23039907 -409.78786643 -12.70519265 -384 -22 C-382.83388184 -22.4218457 -381.66776367 -22.84369141 -380.46630859 -23.27832031 C-344.24524598 -36.24188265 -306.17280059 -43.04119258 -268 -47 C-266.86272461 -47.11859375 -265.72544922 -47.2371875 -264.55371094 -47.359375 C-174.1994398 -56.31220163 -81.81059136 -38.76020526 0 0 Z " fill="#FEFEFE" transform="translate(762,634)"/>
<path d="M0 0 C2.19887075 3.00898103 2.40247021 6.20877027 1.8500061 9.84841919 C1.24618917 12.56374237 0.56793051 15.25046543 -0.13671875 17.94140625 C-0.39423416 18.96652313 -0.65174957 19.99164001 -0.91706848 21.04782104 C-1.76798762 24.4303428 -2.63406189 27.80879505 -3.5 31.1875 C-4.70993949 35.96933445 -5.90987891 40.7536214 -7.10546875 45.5390625 C-7.41350433 46.76993088 -7.72153992 48.00079926 -8.03890991 49.26896667 C-10.2200299 58.054834 -12.24177008 66.86760911 -14.17578125 75.7109375 C-14.44218918 76.92291306 -14.70859711 78.13488861 -14.983078 79.3835907 C-16.01766058 84.10077398 -17.04974738 88.81810456 -18.04745483 93.54324341 C-18.7356775 96.80173297 -19.44432657 100.05521443 -20.15625 103.30859375 C-20.351689 104.26877411 -20.54712799 105.22895447 -20.74848938 106.2182312 C-22.02981713 111.97654641 -23.41316401 115.59716526 -27.8125 119.625 C-31.35963635 121.44990003 -33.10926248 121.75848564 -37.03442383 121.01342773 C-38.18450928 120.61583252 -39.33459473 120.2182373 -40.51953125 119.80859375 C-41.82869209 119.37181847 -43.13785561 118.93505122 -44.44702148 118.49829102 C-45.46854813 118.14627121 -45.46854813 118.14627121 -46.51071167 117.78713989 C-50.10313131 116.55589317 -53.71798376 115.39588002 -57.3359375 114.2421875 C-58.06044601 114.01110794 -58.78495453 113.78002838 -59.53141785 113.54194641 C-90.82197798 103.70968771 -124.27827673 102.43740745 -156.82568359 102.43969727 C-160.30708931 102.43750341 -163.78818087 102.41924978 -167.26953125 102.40039062 C-210.56995374 102.28997747 -251.47657346 111.12887617 -283.8125 141.625 C-284.41578125 142.17542969 -285.0190625 142.72585938 -285.640625 143.29296875 C-319.65165715 175.47630525 -329.83789931 229.09640702 -333.8125 273.625 C-333.90821289 274.65230225 -334.00392578 275.67960449 -334.10253906 276.73803711 C-335.17695416 290.10949883 -335.05632286 303.53184896 -335.0625 316.9375 C-335.06317474 318.25179993 -335.06384949 319.56609985 -335.06454468 320.92022705 C-335.05056495 358.43132061 -332.50855162 395.71357937 -320.8125 431.625 C-320.54179688 432.47384766 -320.27109375 433.32269531 -319.9921875 434.19726562 C-313.13807638 455.51227008 -303.46571904 474.55150061 -288.8125 491.625 C-287.63880859 493.10226562 -287.63880859 493.10226562 -286.44140625 494.609375 C-283.76045039 497.82374704 -280.74061581 500.38257789 -277.4375 502.9375 C-276.83244629 503.40752441 -276.22739258 503.87754883 -275.60400391 504.36181641 C-248.48559504 525.00190001 -217.63296492 530.83899088 -184.25 530.875 C-183.42790039 530.87667175 -182.60580078 530.87834351 -181.75878906 530.88006592 C-169.5539657 530.8815368 -157.46557712 530.37073892 -145.3125 529.25 C-144.62541962 529.18687622 -143.93833923 529.12375244 -143.23043823 529.05871582 C-134.0305536 528.19326829 -124.97568582 526.93402655 -115.8125 525.625 C-115.8125 482.065 -115.8125 438.505 -115.8125 393.625 C-144.50332449 393.78326484 -144.50332449 393.78326484 -173.19384766 393.98535156 C-178.75268555 394.00341797 -178.75268555 394.00341797 -181.35800171 394.0067749 C-183.17111134 394.01290277 -184.98420503 394.02694131 -186.79721069 394.04730225 C-189.54950114 394.07665702 -192.30079871 394.08062168 -195.05322266 394.07910156 C-195.8560499 394.093494 -196.65887714 394.10788643 -197.48603249 394.122715 C-202.67101082 394.08447797 -205.83045743 393.25028482 -209.8125 389.625 C-212.52763849 384.44998333 -212.10147319 378.74339933 -212.0871582 373.03320312 C-212.09226913 371.97882553 -212.09738007 370.92444794 -212.10264587 369.83811951 C-212.11652018 366.36077158 -212.11558692 362.88362228 -212.11328125 359.40625 C-212.11716889 356.9853915 -212.12150371 354.56453369 -212.12626648 352.14367676 C-212.1337237 347.0731383 -212.13344064 342.00266947 -212.12817383 336.93212891 C-212.12237495 330.435449 -212.139323 323.93905379 -212.1625185 317.44242096 C-212.17725038 312.44442072 -212.17812835 307.44648917 -212.17500877 302.44847107 C-212.17552209 300.05308976 -212.18076183 297.65770461 -212.19082069 295.26234436 C-212.20315905 291.91364012 -212.19640894 288.56549223 -212.18481445 285.21679688 C-212.19245819 284.2285643 -212.20010193 283.24033173 -212.20797729 282.22215271 C-212.16750661 276.93292767 -211.7956441 273.19041458 -208.8125 268.625 C-204.03254274 264.29316374 -199.26205465 264.47825697 -193.10209656 264.48455811 C-192.20130161 264.48158698 -191.30050665 264.47861586 -190.37241489 264.4755547 C-187.34161038 264.46685468 -184.31084531 264.46535836 -181.2800293 264.46386719 C-179.11200882 264.45923995 -176.94398916 264.45421542 -174.77597046 264.44882202 C-168.87717335 264.43568729 -162.97838762 264.42925102 -157.07957816 264.42481136 C-153.39614251 264.42188249 -149.71270998 264.41777805 -146.02927589 264.41330719 C-134.51013919 264.39962971 -122.99100962 264.38996416 -111.47186536 264.3861053 C-98.16442731 264.38162316 -84.85713667 264.36406907 -71.54972714 264.3351047 C-61.27025029 264.31350566 -50.99080236 264.30340197 -40.71130306 264.30206418 C-34.56865644 264.30101492 -28.42610628 264.2950813 -22.28348351 264.27724457 C-16.50593257 264.26079457 -10.72855092 264.25859349 -4.95098495 264.26738358 C-2.82976008 264.26815558 -0.70852622 264.26378976 1.41267586 264.25392532 C4.30736853 264.24125271 7.20145742 264.24705726 10.09614563 264.25750732 C10.9365218 264.24945092 11.77689796 264.24139452 12.64274007 264.23309398 C17.53404136 264.27442211 21.02387129 264.78035714 25.1875 267.625 C27.91478896 271.35258648 28.56324275 273.96831183 28.56781673 278.55179596 C28.57625668 279.7465056 28.58469662 280.94121524 28.59339231 282.1721282 C28.58738227 283.48096676 28.58137222 284.78980533 28.57518005 286.13830566 C28.57935302 287.54561873 28.58483033 288.95292843 28.59149987 290.36023188 C28.60597808 294.22728569 28.60170241 298.0941268 28.59433305 301.96119237 C28.58960959 306.13167537 28.60210388 310.3021118 28.61235046 314.47257996 C28.62955942 322.64247254 28.63037421 330.81228829 28.62513756 338.9821943 C28.62109886 345.62105679 28.62253585 352.25989654 28.62788582 358.89875793 C28.62863424 359.84303505 28.62938266 360.78731217 28.63015376 361.76020375 C28.63168521 363.67838443 28.63322356 365.5965651 28.63476873 367.51474577 C28.64850113 385.50858412 28.64305068 403.502379 28.63158352 421.49621636 C28.62164831 437.96604001 28.63459548 454.43575136 28.65851771 470.90555769 C28.68288607 487.80960734 28.69252229 504.71360463 28.68586498 521.61767149 C28.68236799 531.11093632 28.68463656 540.60411475 28.70211601 550.09736633 C28.71680964 558.17794694 28.71751064 566.25838028 28.7000451 574.33895791 C28.69150959 578.46314702 28.68944742 582.58707275 28.70469666 586.7112484 C28.71847811 590.48511281 28.71386585 594.25848656 28.69445742 598.03232211 C28.68888298 600.04751267 28.70302324 602.06272779 28.71781152 604.0778718 C28.70799723 605.27258144 28.69818294 606.46729108 28.68807125 607.69820404 C28.68796391 608.72947214 28.68785658 609.76074023 28.68774599 610.82325888 C27.95746901 614.91334074 25.77293395 617.41625943 22.50952148 619.90429688 C21.94821533 620.21431641 21.38690918 620.52433594 20.80859375 620.84375 C19.8194397 621.39591187 19.8194397 621.39591187 18.81030273 621.95922852 C18.08915283 622.34393311 17.36800293 622.7286377 16.625 623.125 C15.84906494 623.54515381 15.07312988 623.96530762 14.27368164 624.39819336 C-20.605704 643.02730124 -57.85908857 657.24744116 -97.10455322 663.21296692 C-98.97487044 663.49754879 -100.84448924 663.7867455 -102.71351624 664.0796814 C-126.02221635 667.72097775 -148.77352554 669.09085372 -172.31433105 668.9475708 C-175.33665128 668.93403215 -178.35882405 668.93933929 -181.38116074 668.94469929 C-184.35157683 668.94807314 -187.32190561 668.94134966 -190.29230499 668.93157005 C-191.68102815 668.92779509 -193.06976112 668.92653667 -194.45848846 668.9281559 C-204.10743122 668.9300433 -213.29416012 668.0570408 -222.8125 666.625 C-224.23455105 666.45144789 -225.65757305 666.28535221 -227.08203125 666.1328125 C-231.33148221 665.67366565 -235.57192609 665.1593746 -239.8125 664.625 C-241.20227051 664.45194336 -241.20227051 664.45194336 -242.62011719 664.27539062 C-273.45886697 660.31629404 -306.18698231 652.74509328 -333.68701172 637.76708984 C-336.11858178 636.4605329 -338.5743638 635.20765621 -341.03515625 633.95703125 C-358.48214746 625.05102279 -373.29891114 614.49708918 -388.07958984 601.66113281 C-390.58936096 599.48802967 -393.04625418 597.46916388 -395.8125 595.625 C-395.8125 594.965 -395.8125 594.305 -395.8125 593.625 C-396.4725 593.625 -397.1325 593.625 -397.8125 593.625 C-397.8125 592.965 -397.8125 592.305 -397.8125 591.625 C-398.8025 591.295 -399.7925 590.965 -400.8125 590.625 C-402.71484375 588.48046875 -402.71484375 588.48046875 -404.75 585.8125 C-406.66102464 583.31969907 -408.50794787 580.92831411 -410.734375 578.7109375 C-418.63667139 570.77893323 -425.03459406 561.15584484 -430.8125 551.625 C-431.76382812 550.13613281 -431.76382812 550.13613281 -432.734375 548.6171875 C-437.63975601 540.87885389 -441.88965562 532.96074529 -445.82568359 524.69335938 C-446.46419348 523.35504772 -447.10989727 522.02013454 -447.76416016 520.68945312 C-459.94383318 495.83812651 -467.2372112 468.61268396 -472.8125 441.625 C-473.16368896 439.97685303 -473.16368896 439.97685303 -473.52197266 438.29541016 C-476.51565842 424.11647794 -478.50634337 409.89648758 -480.0625 395.5 C-480.14567474 394.73275604 -480.22884949 393.96551208 -480.31454468 393.17501831 C-482.07151735 376.72942732 -482.97217067 360.36587186 -482.98046875 343.83203125 C-482.98370206 342.26909865 -482.98706745 340.70616631 -482.99055481 339.14323425 C-482.99648414 335.88690494 -482.99840148 332.63060189 -482.99780273 329.37426758 C-482.99772203 326.10630695 -483.0045863 322.83848817 -483.01831055 319.57055664 C-483.10543854 298.49169565 -482.59703129 277.63882803 -480.8125 256.625 C-480.71228043 255.43943512 -480.61206085 254.25387024 -480.50880432 253.03237915 C-474.81450255 186.96717203 -457.55370268 116.17280636 -416.8125 62.625 C-416.37437988 62.04411621 -415.93625977 61.46323242 -415.48486328 60.86474609 C-393.55853544 31.9112552 -366.81609681 10.50873915 -334.8125 -6.375 C-333.78020264 -6.92502686 -332.74790527 -7.47505371 -331.68432617 -8.04174805 C-323.06050011 -12.51184888 -314.35302421 -15.9306737 -305.125 -18.9375 C-304.05676498 -19.28942917 -304.05676498 -19.28942917 -302.96694946 -19.64846802 C-219.86007625 -46.90462409 -110.6564254 -44.35662133 0 0 Z " fill="#FEFEFE" transform="translate(1692.8125,764.375)"/>
<path d="M0 0 C1.04859695 -0.0071553 2.09719391 -0.01431061 3.17756653 -0.02168274 C4.32260147 -0.02437164 5.46763641 -0.02706055 6.64736938 -0.02983093 C7.85751205 -0.03640213 9.06765472 -0.04297333 10.31446838 -0.04974365 C14.32208505 -0.06946725 18.32966175 -0.0811389 22.33731079 -0.09111023 C23.71904139 -0.09515937 25.10077179 -0.09927634 26.48250198 -0.10346031 C32.97302265 -0.1224978 39.46353202 -0.13673353 45.95407522 -0.14507228 C53.43927543 -0.15484876 60.92418025 -0.18118469 68.40927637 -0.22157317 C74.20048819 -0.25174695 79.99161537 -0.26654221 85.78290427 -0.26985329 C89.23949093 -0.27220176 92.69576149 -0.28113551 96.15226364 -0.30631447 C100.00880114 -0.33395571 103.86495032 -0.32976017 107.72158813 -0.32279968 C108.86257462 -0.33560974 110.0035611 -0.3484198 111.17912292 -0.36161804 C117.18398826 -0.3220665 121.2236122 -0.16257508 125.81387329 4.14717102 C129.53433345 8.79515118 129.22867723 13.17490397 129.17463684 18.85977173 C129.17720012 19.84409642 129.17976339 20.82842111 129.18240434 21.84257382 C129.18734936 25.14389802 129.1708371 28.44476584 129.15444946 31.74604797 C129.15360335 34.11128732 129.15407803 36.47652746 129.15577698 38.84176636 C129.15663896 45.26695401 129.13898018 51.69197421 129.11805511 58.11712289 C129.09978916 64.1502841 129.09818655 70.18346378 129.09509949 76.21664753 C129.08853555 88.1656069 129.06857598 100.11450479 129.04019165 112.06343079 C129.01264957 123.66987302 128.99145113 135.27629847 128.97866821 146.88276672 C128.97786422 147.60562746 128.97706023 148.3284882 128.97623187 149.07325381 C128.96929322 155.36122013 128.96283487 161.64918694 128.95642376 167.93715382 C128.92820083 195.00721742 128.86843779 222.07711803 128.81387329 249.14717102 C191.51387329 249.14717102 254.21387329 249.14717102 318.81387329 249.14717102 C318.74426392 231.83119446 318.67465454 214.5152179 318.60293579 196.67451477 C318.57228905 185.72333755 318.54315812 174.77219131 318.52090454 163.82099915 C318.50915742 158.06912636 318.49703456 152.31725456 318.48428345 146.56538391 C318.48270095 145.84448682 318.48111846 145.12358973 318.47948802 144.38084728 C318.45339651 132.74451609 318.40609621 121.10836292 318.35095651 109.47213726 C318.29483482 97.5290135 318.26151798 85.58598289 318.24934232 73.64273268 C318.24185036 66.93481994 318.22384096 60.22727815 318.17949295 53.51949883 C318.13878984 47.2067397 318.12620002 40.89455056 318.1352272 34.58167267 C318.13357558 32.26411149 318.12162767 29.9465314 318.09864044 27.62908363 C318.06879071 24.46476971 318.075962 21.30260824 318.09234619 18.13824463 C318.07486914 17.22091598 318.05739209 16.30358733 318.03938544 15.35846084 C318.1183939 9.71414459 319.20166766 6.47413324 323.21701038 2.4158197 C325.32274617 0.74289029 326.75109986 0.2561111 329.44113159 0.21974182 C330.30592384 0.19153603 331.17071609 0.16333023 332.06171417 0.13426971 C332.96992668 0.13852715 333.87813919 0.14278458 334.81387329 0.14717102 C335.73225731 0.12292809 336.65064133 0.09868515 337.59685516 0.07370758 C340.65806593 0.00292987 343.71573403 -0.01075491 346.77774048 -0.01396179 C348.50648659 -0.02140915 348.50648659 -0.02140915 350.27015686 -0.02900696 C354.05036023 -0.04351298 357.83052177 -0.05040802 361.61074829 -0.05595398 C364.25009155 -0.06171106 366.88943482 -0.06746872 369.52877808 -0.07322693 C374.34325677 -0.08276389 379.15772654 -0.08868312 383.97221351 -0.09172368 C391.04300025 -0.0962157 398.11359477 -0.11383631 405.18432307 -0.14272428 C411.33100545 -0.16695985 417.47760843 -0.17466825 423.62433624 -0.17639923 C426.23184512 -0.17942594 428.83935317 -0.18745505 431.44683075 -0.20058441 C435.08723145 -0.21762012 438.72715995 -0.21577142 442.36758423 -0.20927429 C443.44304001 -0.21848907 444.51849579 -0.22770386 445.62654114 -0.23719788 C451.10391922 -0.20654272 455.10900732 0.0024902 459.81387329 3.14717102 C463.06617003 6.73591225 463.93847328 9.89215262 463.94152379 14.66144544 C463.94453976 15.5940709 463.94755573 16.52669635 463.95066309 17.48758319 C463.94800888 19.03020625 463.94800888 19.03020625 463.94530106 20.60399342 C463.94735369 21.69803514 463.94940632 22.79207687 463.95152116 23.91927138 C463.95722175 27.62291928 463.95573015 31.32653034 463.95431519 35.03018188 C463.95689707 37.69724216 463.95987069 40.36429939 463.96331859 43.03135842 C463.97090986 49.6167466 463.97309222 56.20212668 463.97364764 62.78751878 C463.97456016 70.67214728 463.98122435 78.55676825 463.98799447 86.44139352 C464.00406783 105.49955321 464.00995909 124.55771212 464.01474321 143.61587737 C464.01707764 152.62771642 464.02068011 161.63955484 464.02443859 170.6513934 C464.03727476 201.48681692 464.04799431 232.32224008 464.05144119 263.15766621 C464.05166283 265.09395888 464.05188461 267.03025155 464.05210654 268.96654422 C464.05232719 270.90756876 464.05254767 272.8485933 464.05276799 274.78961784 C464.05321055 278.68378596 464.05365766 282.57795407 464.05410767 286.47212219 C464.05427175 287.92041721 464.05427175 287.92041721 464.05443915 289.39797071 C464.05807109 320.71666425 464.07399595 352.03533466 464.09729803 383.35401934 C464.12187716 416.44945719 464.13561312 449.54488182 464.13680911 482.64032906 C464.13698057 486.27120761 464.137196 489.90208616 464.13744354 493.53296471 C464.13749931 494.42701903 464.13755508 495.32107335 464.13761254 496.24222023 C464.13876461 510.64864531 464.14979976 525.05504672 464.1643306 539.4614638 C464.17867525 553.93317006 464.18194409 568.40484586 464.17389062 582.87655727 C464.16942487 591.48032117 464.17333262 600.08398697 464.18912913 608.68773804 C464.19884906 614.43031586 464.19772959 620.17282463 464.1876929 625.91540175 C464.18227917 629.19039192 464.18330265 632.46515443 464.19420162 635.74013654 C464.20519264 639.26453941 464.19787824 642.78843708 464.18581009 646.3128252 C464.19720288 647.84491302 464.19720288 647.84491302 464.20882583 649.4079521 C464.16248723 655.63314878 463.41048754 660.00959547 459.31387329 664.95967102 C456.29883805 667.34657392 453.31234237 667.27750085 449.6341095 667.29434204 C448.56164474 667.30149734 447.48917999 667.30865265 446.38421631 667.31602478 C445.20753387 667.31871368 444.03085144 667.32140259 442.81851196 667.32417297 C441.57925461 667.33074417 440.33999725 667.33731537 439.06318665 667.34408569 C434.952736 667.36383404 430.84232437 667.37548551 426.73184204 667.38545227 C425.3157531 667.38950053 423.89966436 667.39361747 422.48357582 667.39780235 C415.8307351 667.4168487 409.17790545 667.43108131 402.52504271 667.43941432 C394.84966395 667.44918733 387.17457353 667.47551051 379.49929637 667.51591522 C373.56373228 667.54608772 367.6282508 667.56088423 361.69261152 667.56419533 C358.14882279 667.56654441 354.60534232 667.5754858 351.06163597 667.60065651 C347.10680307 667.62829426 343.15234892 667.62410257 339.19741821 667.61714172 C338.02680847 667.62995178 336.85619873 667.64276184 335.65011597 667.65596008 C329.58827091 667.61701902 325.43640086 667.51994597 320.81387329 663.14717102 C316.75898728 658.30353392 317.41990969 653.02093407 317.49107361 647.02990723 C317.49259389 645.8944911 317.49411416 644.75907497 317.49568051 643.58925229 C317.50446513 639.77657439 317.5348521 635.96437334 317.56509399 632.15180969 C317.57747964 629.422051 317.58531031 626.69228372 317.59332275 623.96250916 C317.61297211 618.08134501 317.64366995 612.20032183 317.68187904 606.31925011 C317.73710684 597.81623145 317.77566111 589.31320147 317.81015029 580.81007639 C317.86655961 567.01424919 317.93644731 553.21852452 318.01480103 539.42280579 C318.09088414 526.02179235 318.16059113 512.6207706 318.22183228 499.21968079 C318.22756452 497.96791826 318.22756452 497.96791826 318.23341256 496.6908676 C318.26324952 490.16443461 318.29271674 483.63799996 318.32206714 477.11156476 C318.46601798 445.12331192 318.6422165 413.13531035 318.81387329 381.14717102 C256.11387329 381.14717102 193.41387329 381.14717102 128.81387329 381.14717102 C128.86027954 401.14568665 128.90668579 421.14420227 128.95449829 441.74873352 C128.9749276 454.39066198 128.99437242 467.03258033 129.00918579 479.67451477 C129.01701739 486.31367533 129.02509935 492.9528355 129.03359985 499.59199524 C129.03465485 500.42411667 129.03570984 501.25623811 129.03679681 502.11357534 C129.05419855 515.55113911 129.08573628 528.98863447 129.12248448 542.42615767 C129.1598781 556.21459369 129.1821058 570.00299387 129.19022727 583.79147851 C129.19571833 592.30113818 129.21306718 600.81060459 129.24553916 609.32020478 C129.26666758 615.15394628 129.27307714 620.98758773 129.2678788 626.82136472 C129.26531432 630.18830895 129.27145088 633.55464258 129.29069519 636.92157364 C129.31053993 640.57188349 129.30583158 644.22136049 129.29489136 647.87168884 C129.31236841 649.46799871 129.31236841 649.46799871 129.33019853 651.09655726 C129.28292241 656.91587875 128.93008529 660.65947694 124.81387329 665.14717102 C121.769245 667.3036091 119.18521723 667.39978094 115.50712585 667.40786743 C114.43184128 667.41495224 113.3565567 667.42203705 112.24868774 667.42933655 C110.48670044 667.42562042 110.48670044 667.42562042 108.68911743 667.42182922 C107.44810776 667.42694016 106.20709808 667.43205109 104.92848206 667.43731689 C101.52758482 667.44883664 98.12693129 667.45128628 94.72603154 667.4487536 C91.88556285 667.44768348 89.04511661 667.45256828 86.20465273 667.45735902 C79.50284261 667.46845212 72.80108854 667.46889272 66.09927368 667.46284485 C59.18846932 667.45680422 52.2778685 667.46911865 45.36709887 667.49041492 C39.43067028 667.50803512 33.49430646 667.51403163 27.55785269 667.51077718 C24.0136257 667.50896484 20.46954393 667.51159541 16.92534065 667.52549171 C12.97282049 667.54040927 9.02055926 667.53109621 5.06802368 667.51948547 C3.89538971 667.52712921 2.72275574 667.53477295 1.5145874 667.54264832 C0.436483 667.535634 -0.6416214 667.52861969 -1.75239563 667.52139282 C-2.68650741 667.52156056 -3.62061918 667.52172831 -4.58303738 667.52190113 C-9.02270284 666.88278502 -11.39389682 665.05769746 -14.30594283 661.71082187 C-17.17079682 657.23395477 -16.73173237 652.43057797 -16.67946053 647.27714634 C-16.68418511 646.17487755 -16.68890969 645.07260877 -16.69377744 643.9369379 C-16.70475281 640.22313038 -16.68703832 636.51000893 -16.66955566 632.79623413 C-16.67146485 630.11490663 -16.67495394 627.43362336 -16.6803664 624.75230497 C-16.68892319 618.91218524 -16.68251093 613.07222954 -16.66632271 607.23212814 C-16.64227865 598.54775843 -16.64106079 589.86349014 -16.64428481 581.17909317 C-16.64951275 564.76768735 -16.62755644 548.35638541 -16.59727438 531.94501192 C-16.57404153 519.27406793 -16.5580085 506.60313321 -16.54708481 493.93217278 C-16.54548616 492.11282852 -16.54388517 490.29348428 -16.54228183 488.47414003 C-16.53987225 485.73269016 -16.53746567 482.99124028 -16.53507482 480.2497904 C-16.51266018 454.75605531 -16.48203608 429.26234053 -16.43437386 403.76863956 C-16.43257824 402.80725302 -16.43078263 401.84586648 -16.42893261 400.85534701 C-16.4198048 395.98247055 -16.41059668 391.10959425 -16.40135635 386.23671801 C-16.39952124 385.26891964 -16.39768612 384.30112128 -16.3957954 383.3039957 C-16.39208299 381.34687205 -16.38836684 379.38974842 -16.38464696 377.43262479 C-16.32694391 346.97361501 -16.29581366 316.51467996 -16.28573608 286.05561829 C-16.27436918 251.84809135 -16.24311274 217.64066658 -16.18237197 183.43318933 C-16.17596455 179.78745467 -16.16962447 176.14171989 -16.16332626 172.49598503 C-16.16176165 171.59828818 -16.16019704 170.70059133 -16.15858501 169.77569155 C-16.13534923 156.21086435 -16.12772798 142.64608508 -16.12796402 129.0812397 C-16.12820709 113.65881748 -16.1076053 98.23658639 -16.05901797 82.81423718 C-16.03243666 74.17949281 -16.02246429 65.54510258 -16.03620287 56.91032616 C-16.04372163 51.14586329 -16.02955372 45.38171951 -15.99759471 39.61734095 C-15.979985 36.33058668 -15.97516982 33.0447065 -15.99009575 29.75791682 C-16.00467953 26.21888052 -15.9826577 22.68191926 -15.9512043 19.14303684 C-15.96421865 18.12031649 -15.97723299 17.09759613 -15.99064171 16.04388425 C-15.89063424 10.1099931 -14.9502714 6.763987 -10.86235445 2.38950386 C-7.54329695 -0.07040898 -4.00806505 0.01881594 0 0 Z " fill="#FEFEFE" transform="translate(2371.1861267089844,752.8528289794922)"/>
<path d="M0 0 C1.04859695 -0.00571014 2.09719391 -0.01142029 3.17756653 -0.01730347 C4.32260147 -0.01842133 5.46763641 -0.01953918 6.64736938 -0.02069092 C7.85751205 -0.02565582 9.06765472 -0.03062073 10.31446838 -0.03573608 C13.63066046 -0.04783232 16.94678958 -0.05529939 20.2629962 -0.05974674 C22.33616754 -0.06268149 24.40933341 -0.06678702 26.48250198 -0.07125092 C32.97302613 -0.0849175 39.46353769 -0.09458869 45.95407522 -0.09845281 C53.43922163 -0.10293398 60.92418547 -0.12048802 68.40927637 -0.1494534 C74.20048945 -0.17108404 79.99165122 -0.18115779 85.78290427 -0.18249393 C89.23942887 -0.18354081 92.69578166 -0.18942389 96.15226364 -0.20731354 C100.00876484 -0.22688633 103.86503847 -0.22249972 107.72158813 -0.21600342 C108.86257462 -0.2252182 110.0035611 -0.23443298 111.17912292 -0.243927 C117.64441447 -0.20977319 122.53564545 0.01490051 127.44330883 4.69398499 C129.48621276 8.34056753 129.21656793 11.94122553 129.17463684 16.01147461 C129.17720012 16.91735738 129.17976339 17.82324015 129.18240434 18.75657392 C129.18735407 21.79844674 129.17082954 24.83982557 129.15444946 27.88165283 C129.15360345 30.05955493 129.15407783 32.23745789 129.15577698 34.4153595 C129.15663935 40.33442998 129.13897426 46.25331887 129.11805511 52.17234707 C129.09932874 58.35565208 129.09754105 64.53896104 129.09397888 70.72229004 C129.08464654 82.43425746 129.06001662 94.14614108 129.02993041 105.85807157 C128.99618311 119.1904268 128.97990971 132.52278237 128.96484411 145.85517073 C128.93346814 173.28364094 128.88068449 200.71203673 128.81387329 228.14044189 C129.58802739 227.7638166 130.36218149 227.38719131 131.15979481 226.99915314 C134.06883686 225.58576286 136.97923395 224.17521107 139.89053822 222.76648712 C141.14352994 222.15949482 142.39599636 221.55141676 143.64789677 220.94217682 C152.60896307 216.58246183 161.47466731 212.62487771 171.00137329 209.64044189 C172.24129028 209.24083252 173.48120728 208.84122314 174.75869751 208.42950439 C186.28508801 204.81245479 197.88354741 202.03024379 209.81387329 200.14044189 C210.62308228 200.01201904 211.43229126 199.88359619 212.26602173 199.75128174 C236.30488169 196.18387101 261.93535675 196.97691439 285.81387329 201.14044189 C286.57619263 201.26902588 287.33851196 201.39760986 288.12393188 201.53009033 C314.30815982 206.16019228 338.97998724 219.41558135 358.56387329 237.07794189 C359.35314209 237.78720825 359.35314209 237.78720825 360.15835571 238.51080322 C361.4184653 239.67728893 362.62206361 240.90425632 363.81387329 242.14044189 C363.81387329 242.80044189 363.81387329 243.46044189 363.81387329 244.14044189 C364.47387329 244.14044189 365.13387329 244.14044189 365.81387329 244.14044189 C391.64230122 271.81000012 404.71624703 309.21933042 411.50137329 345.76544189 C411.69199341 346.78114258 411.88261353 347.79684326 412.07901001 348.84332275 C412.73300629 352.59966032 413.29205646 356.36400138 413.81387329 360.14044189 C413.94128906 361.04417542 414.06870483 361.94790894 414.19998169 362.87902832 C416.8950537 382.65740516 417.28527506 402.21568595 417.20498657 422.13751221 C417.18797806 426.39237503 417.19801545 430.646671 417.21531582 434.90151405 C417.43409247 498.56827378 413.08282601 578.99201889 368.81387329 629.14044189 C368.07137329 629.99122314 367.32887329 630.84200439 366.56387329 631.71856689 C364.34457499 634.22277512 362.09082916 636.68865578 359.81387329 639.14044189 C359.2634436 639.74501221 358.71301392 640.34958252 358.14590454 640.97247314 C329.15425173 671.53898117 284.88972819 678.89376495 244.7171936 680.07427979 C189.61779556 681.32990852 139.46373789 664.66885957 94.81387329 633.14044189 C94.8409436 634.28255127 94.86801392 635.42466064 94.89590454 636.60137939 C94.89293634 641.09523261 94.29922826 645.35143831 93.50137329 649.76544189 C93.38342407 650.48989502 93.26547485 651.21434814 93.14395142 651.96075439 C92.20644724 657.26847033 91.1653149 662.26249763 86.75880432 665.7816925 C82.75585044 667.62859863 79.34623742 667.56831873 74.98794556 667.54449463 C73.66994461 667.55478951 73.66994461 667.55478951 72.32531738 667.56529236 C69.42680609 667.58356244 66.52883595 667.57972252 63.63027954 667.57403564 C61.61155522 667.57859738 59.59283245 667.58390293 57.57411194 667.58992004 C53.34496753 667.59885159 49.11601195 667.59642751 44.88687134 667.58648682 C39.47179519 667.57499783 34.05737119 667.59520753 28.64238071 667.62440395 C24.47388073 667.64276512 20.30553704 667.64247363 16.13700676 667.63676643 C14.1407473 667.63661321 12.14447726 667.64265877 10.1482563 667.65505791 C7.35482196 667.66996418 4.56259263 667.65929348 1.76919556 667.64215088 C0.94770523 667.65181885 0.1262149 667.66148682 -0.72016907 667.67144775 C-5.99851693 667.60374552 -8.98051803 666.61174885 -13.18612671 663.14044189 C-17.40387805 657.31592814 -16.32957247 648.13881046 -16.31755447 641.30354309 C-16.31960711 640.2170042 -16.32165974 639.1304653 -16.32377458 638.01100099 C-16.32944535 634.35695236 -16.32798723 630.70294142 -16.3265686 627.04888916 C-16.32915217 624.40796296 -16.33212652 621.7670398 -16.335572 619.12611485 C-16.34314407 612.62086157 -16.34534466 606.1156165 -16.34590106 599.61035927 C-16.34681545 591.81837202 -16.3534851 584.02639234 -16.36024788 576.23440835 C-16.37630027 557.40519524 -16.38220971 538.57598295 -16.38699663 519.74676423 C-16.38933273 510.84128322 -16.39293533 501.93580287 -16.39669201 493.03032237 C-16.40952507 462.55064678 -16.42024587 432.07097156 -16.42369461 401.59129333 C-16.42391624 399.67839998 -16.42413803 397.76550663 -16.42435996 395.85261327 C-16.4245806 393.9350963 -16.42480109 392.01757934 -16.42502141 390.10006237 C-16.42546396 386.25317065 -16.42591108 382.40627893 -16.42636108 378.55938721 C-16.42647047 377.6055834 -16.42657987 376.65177959 -16.42669257 375.66907264 C-16.43032534 344.72361362 -16.44625492 313.77817799 -16.46955145 282.83272792 C-16.49413323 250.1203041 -16.50786662 217.40789365 -16.50906253 184.69546032 C-16.50923399 181.10647265 -16.50944942 177.51748498 -16.50969696 173.92849731 C-16.50975273 173.04477847 -16.5098085 172.16105963 -16.50986596 171.25056142 C-16.51101764 157.01564283 -16.52204933 142.78074822 -16.53658402 128.54583773 C-16.55093181 114.24711421 -16.55419567 99.94842151 -16.54614404 85.64969277 C-16.54168015 77.15054208 -16.54557871 68.65149072 -16.56138254 60.15235304 C-16.57110862 54.4783729 -16.56997709 48.80446261 -16.55994632 43.13048316 C-16.55453717 39.89556287 -16.55554546 36.66087273 -16.56645504 33.42596066 C-16.57746158 29.94291251 -16.57012027 26.46037412 -16.55806351 22.9773407 C-16.5656587 21.97094964 -16.57325389 20.96455859 -16.58107924 19.92767084 C-16.52987863 13.11377075 -15.67428002 8.19043627 -11.24862671 2.76544189 C-7.75183456 0.01039354 -4.34768113 0.01420708 0 0 Z M137.67324829 331.85919189 C136.09712769 332.62247803 136.09712769 332.62247803 134.48916626 333.40118408 C131.92813227 334.64236779 129.36982878 335.88884268 126.81387329 337.14044189 C126.62709833 363.65224316 126.48597015 390.16394603 126.39937592 416.67627239 C126.35810222 428.98608564 126.30181934 441.29549042 126.21035767 453.6050415 C126.1306894 464.33245591 126.07902396 475.05957455 126.06116533 485.78727657 C126.05072378 491.46916453 126.02613895 497.15020628 125.96803284 502.83182335 C125.91380071 508.17786761 125.89696657 513.52271581 125.90901184 518.86900902 C125.9068078 520.83268226 125.89085158 522.79639477 125.86022949 524.75983047 C125.82048025 527.4395425 125.82996061 530.11472607 125.85183716 532.79454041 C125.82853443 533.57372965 125.8052317 534.3529189 125.78122282 535.15571994 C125.75269659 537.6411411 125.75269659 537.6411411 126.81387329 541.14044189 C129.24828144 543.32964861 131.86330174 544.75322917 134.81387329 546.14044189 C136.03082886 546.74565674 136.03082886 546.74565674 137.27236938 547.36309814 C137.95380005 547.64024658 138.63523071 547.91739502 139.33731079 548.20294189 C140.51366089 548.68223145 140.51366089 548.68223145 141.71377563 549.17120361 C142.53055786 549.49105225 143.34734009 549.81090088 144.18887329 550.14044189 C145.05592896 550.48220459 145.92298462 550.82396729 146.8163147 551.17608643 C152.53677892 553.38042607 158.29086753 555.34320049 164.18887329 557.01544189 C164.85193481 557.20622314 165.51499634 557.39700439 166.19815063 557.59356689 C178.12717055 560.78620641 190.14383164 561.46319362 202.43887329 561.39044189 C203.75371704 561.39817627 205.06856079 561.40591064 206.42324829 561.41387939 C223.79500817 561.37934309 238.63362423 558.06683125 251.90371704 546.28497314 C277.14909328 520.4581295 274.0011789 471.32481961 274.05410767 438.14068604 C274.06380968 434.47696183 274.09493668 430.81380094 274.12637329 427.15020752 C274.19203395 412.563951 273.35849909 398.51055632 270.81387329 384.14044189 C270.6150354 383.0132373 270.41619751 381.88603271 270.21133423 380.72467041 C269.72325369 378.21761062 269.17664919 375.74460348 268.56387329 373.26544189 C268.25026855 371.98467773 268.25026855 371.98467773 267.93032837 370.67803955 C263.37839031 353.03989692 254.75852213 335.74144095 238.81387329 325.89044189 C208.53592557 308.16190672 167.34274736 317.3246835 137.67324829 331.85919189 Z " fill="#FDFDFD" transform="translate(3388.1861267089844,752.8595581054688)"/>
<path d="M0 0 C1.10894119 -0.00990463 2.21788239 -0.01980927 3.36042786 -0.03001404 C4.57248901 -0.02551239 5.78455017 -0.02101074 7.03334045 -0.01637268 C8.31336441 -0.02323593 9.59338837 -0.03009918 10.91220093 -0.03717041 C14.42052497 -0.05511431 17.92859906 -0.05393117 21.43695521 -0.04822803 C24.36690496 -0.04513779 27.29680658 -0.05122681 30.22674948 -0.05726677 C37.13953406 -0.07131455 44.05219506 -0.06974879 50.96498108 -0.05836487 C58.09397425 -0.04688424 65.2225912 -0.0609575 72.35153478 -0.08776134 C78.47481209 -0.1099211 84.59797132 -0.1165551 90.72128588 -0.11068493 C94.3773309 -0.10731465 98.03313478 -0.10973476 101.68914604 -0.12693596 C105.76635929 -0.14528156 109.84284098 -0.13121535 113.9200592 -0.11402893 C115.13009613 -0.1236969 116.34013306 -0.13336487 117.58683777 -0.14332581 C125.6960261 -0.07159558 125.6960261 -0.07159558 129.70523071 2.10653687 C132.85066795 6.01423978 133.79106251 9.58604631 133.79473019 14.54973316 C133.80034558 15.57393952 133.80596098 16.59814588 133.81174654 17.6533888 C133.8057749 19.33107981 133.8057749 19.33107981 133.79968262 21.04266357 C133.80335832 22.23621104 133.80703403 23.4297585 133.81082112 24.65947407 C133.81907606 27.96942453 133.81842978 31.27915871 133.81409419 34.58910239 C133.81161717 38.1606004 133.82068771 41.7320706 133.82847595 45.30355835 C133.84052249 51.49400625 133.84562901 57.6844284 133.84635735 63.87488747 C133.84768411 72.84267269 133.86280706 81.81039559 133.88185252 90.77815881 C133.91270315 105.35087236 133.93686111 119.92358751 133.95472717 134.49632263 C133.95633619 135.80464703 133.95633619 135.80464703 133.95797772 137.13940223 C133.96978266 146.857353 133.979989 156.5753044 133.98841858 166.29325867 C133.99149216 169.81049094 133.99458103 173.3277232 133.99769592 176.84495544 C133.99884393 178.14668039 133.99884393 178.14668039 134.00001513 179.47470281 C134.01312763 193.97980357 134.03781343 208.48485948 134.07143933 222.98992699 C134.09166155 231.92592359 134.10202809 240.86182401 134.09945012 249.79784366 C134.09840966 255.93297734 134.10813784 262.06803536 134.12608915 268.20314262 C134.13606686 271.73525217 134.14133578 275.2671942 134.13332176 278.79931259 C133.52248866 310.33978914 133.52248866 310.33978914 148.05702209 337.19236755 C151.88701663 340.57673379 155.77556065 342.60775638 160.54139709 344.38768005 C161.32514709 344.69318787 162.10889709 344.99869568 162.91639709 345.3134613 C186.69114158 353.15169738 214.46231639 347.02254742 237.16639709 338.63768005 C238.39978821 338.1898114 238.39978821 338.1898114 239.65809631 337.7328949 C245.0185629 335.67360777 249.92543628 333.11504308 254.87879944 330.23826599 C255.52217758 329.86748932 256.16555573 329.49671265 256.82843018 329.11470032 C258.4008042 328.20809149 259.97129602 327.29821959 261.54139709 326.38768005 C261.53987821 325.71957571 261.53835933 325.05147138 261.53679442 324.36312145 C261.44729846 284.77322273 261.37865913 245.18333706 261.33713578 205.59335768 C261.3321329 200.84063489 261.32695562 196.0879123 261.32167053 191.33518982 C261.32062129 190.38900111 261.31957205 189.4428124 261.31849101 188.46795131 C261.30108179 173.14374745 261.26954125 157.81960356 261.23278591 142.49543529 C261.19539089 126.7735427 261.17316429 111.05168154 261.16504312 95.32974631 C261.15955236 85.62703717 261.14220504 75.92449753 261.10973123 66.22184057 C261.08860111 59.5699968 261.08219364 52.91824078 261.08739159 46.26636588 C261.08995571 42.42750226 261.08600193 38.58893501 261.0645752 34.75012398 C261.0415129 30.58789095 261.04944032 26.42628989 261.06037903 22.26400757 C261.04872766 21.05096685 261.0370763 19.83792613 261.02507186 18.5881266 C261.07212835 11.98139025 261.47547556 7.70270678 265.54139709 2.38768005 C268.86817402 0.16982877 269.91908284 0.13254719 273.79708862 0.11352539 C275.43102821 0.0985627 275.43102821 0.0985627 277.09797668 0.08329773 C278.2933606 0.08263306 279.48874451 0.08196838 280.72035217 0.08128357 C281.97911667 0.07296005 283.23788116 0.06463654 284.53479004 0.05606079 C287.98945941 0.03410535 291.44404026 0.02531532 294.89877152 0.02023435 C297.05787789 0.01659145 299.21696105 0.01035169 301.37605858 0.00323296 C308.91075535 -0.02126693 316.44538324 -0.03431421 323.9801178 -0.03785706 C330.99948754 -0.04149093 338.01841964 -0.07137378 345.03765565 -0.11326164 C351.06664997 -0.14797658 357.09549938 -0.16340571 363.12459296 -0.16410309 C366.72432582 -0.16489563 370.32361312 -0.17362229 373.92324257 -0.20210075 C377.94056081 -0.23317232 381.95683958 -0.22421626 385.97425842 -0.21168518 C387.16356964 -0.22651947 388.35288086 -0.24135376 389.57823181 -0.25663757 C398.56661998 -0.17669296 398.56661998 -0.17669296 402.26434326 2.80014038 C405.74528285 6.75572068 405.68566532 9.41340946 405.67282486 14.47583485 C405.67487749 15.2178406 405.67693013 15.95984635 405.67904496 16.72433713 C405.68474596 19.23646811 405.68325392 21.7485448 405.68183899 24.26068115 C405.68442085 26.06963181 405.68743351 27.87858189 405.69084239 29.68753117 C405.69893667 34.67865316 405.70070331 39.66976078 405.70143986 44.66088855 C405.7032862 50.03591798 405.71083139 55.41093987 405.71757507 60.78596497 C405.73117603 72.54820281 405.73718582 84.31043726 405.74158573 96.07268167 C405.74434512 103.41200283 405.7485819 110.75132266 405.7530899 118.09064293 C405.76528475 138.39654743 405.77558372 158.70245087 405.778965 179.00835896 C405.77918456 180.30881224 405.77940413 181.60926553 405.77963035 182.94912649 C405.77984863 184.25275516 405.7800669 185.55638383 405.7802918 186.8995164 C405.78073527 189.54132291 405.78118183 192.18312941 405.78163147 194.82493591 C405.7818529 196.13537324 405.78207433 197.44581057 405.78230247 198.79595812 C405.78625198 220.03824166 405.8037097 241.28049092 405.82699099 262.5227612 C405.85068067 284.31287915 405.86316576 306.10297989 405.86433291 327.89311093 C405.86525101 340.13514298 405.87103699 352.37713038 405.88915253 364.61915016 C405.90452137 375.04202917 405.90969304 385.46484973 405.90141442 395.88773791 C405.89749652 401.20879043 405.89849292 406.52972515 405.91247177 411.85076332 C405.92514252 416.71824343 405.92407363 421.58551638 405.91188106 426.45299592 C405.90991216 428.21748375 405.91305704 429.98198592 405.92172542 431.74645356 C405.93273673 434.13855733 405.92538821 436.52991944 405.91333389 438.92200184 C405.92092909 439.61260272 405.92852428 440.30320361 405.93634963 441.01473179 C405.88942128 445.30644643 405.13220049 447.95883811 402.54139709 451.38768005 C398.83075114 454.26363098 396.04023513 454.77184008 391.40028381 454.8200531 C390.18065948 454.83984726 388.96103516 454.85964142 387.70445251 454.8800354 C385.73268539 454.88962029 385.73268539 454.88962029 383.72108459 454.8993988 C382.33883617 454.91628749 380.95660271 454.93444319 379.5743866 454.95379639 C375.9288362 455.0012969 372.28334583 455.03105182 368.6375885 455.05723572 C364.99731889 455.08664436 361.35728012 455.1335097 357.71717834 455.17869568 C352.14658533 455.24603776 346.57615349 455.29591781 341.00526428 455.33055115 C336.48900091 455.3590051 331.97558951 455.41222923 327.46034241 455.51121521 C326.58097015 455.52554092 325.7015979 455.53986664 324.795578 455.55462646 C323.24689032 455.58013273 321.69831524 455.61651319 320.1502533 455.66738892 C315.52416247 455.72284951 312.40043806 454.96095588 308.54139709 452.38768005 C305.95812041 449.02952537 305.04500538 446.01340017 304.37342834 441.8681488 C304.20262756 440.84656677 304.03182678 439.82498474 303.85585022 438.77244568 C303.60738342 437.18979919 303.60738342 437.18979919 303.35389709 435.57518005 C303.176651 434.50074646 302.99940491 433.42631287 302.81678772 432.31932068 C302.38224382 429.67682399 301.9574616 427.03313835 301.54139709 424.38768005 C300.41604553 425.01674255 299.29069397 425.64580505 298.13124084 426.29393005 C294.90434428 428.09582059 291.67163228 429.88681493 288.43592834 431.6728363 C285.6038224 433.23667262 282.78601693 434.81786112 279.99061584 436.4462738 C254.46769102 450.87227479 225.30455362 459.39597722 196.54139709 464.38768005 C195.35117195 464.59437065 195.35117195 464.59437065 194.13690186 464.80523682 C181.46790008 466.94408305 169.14167654 467.8150952 156.29969788 467.66893005 C153.51424285 467.63737241 150.72935845 467.62789186 147.94374084 467.62205505 C112.28469759 467.47104273 71.05382237 462.1525339 41.54139709 440.38768005 C40.97888245 439.97808044 40.4163678 439.56848083 39.83680725 439.14646912 C37.99914641 437.8022678 36.17380826 436.44330367 34.35389709 435.07518005 C33.77575256 434.64213562 33.19760803 434.20909119 32.60194397 433.76292419 C31.20900139 432.68704147 29.86950294 431.54264651 28.54139709 430.38768005 C28.54139709 429.72768005 28.54139709 429.06768005 28.54139709 428.38768005 C27.88139709 428.38768005 27.22139709 428.38768005 26.54139709 428.38768005 C26.54139709 427.72768005 26.54139709 427.06768005 26.54139709 426.38768005 C25.88139709 426.38768005 25.22139709 426.38768005 24.54139709 426.38768005 C20.54139709 421.91709182 20.54139709 421.91709182 20.54139709 419.38768005 C19.55139709 419.05768005 18.56139709 418.72768005 17.54139709 418.38768005 C-0.59036028 395.46462928 -8.96835159 364.98936452 -11.45860291 336.38768005 C-11.54074248 335.47694733 -11.62288206 334.5662146 -11.70751071 333.62788391 C-12.37430562 325.70281199 -12.60486149 317.85007461 -12.5990448 309.8993988 C-12.60201592 308.60550012 -12.60498704 307.31160143 -12.6080482 305.97849369 C-12.61602553 302.42601847 -12.61790249 298.87356356 -12.61864567 295.32108045 C-12.62051226 291.47522786 -12.62806675 287.62938543 -12.63478088 283.78353882 C-12.64829195 275.39787815 -12.65437571 267.01222231 -12.65879154 258.62655258 C-12.66156255 253.38824615 -12.66580107 248.14994155 -12.67029572 242.91163635 C-12.68247191 228.39653642 -12.69277901 213.88143793 -12.69617081 199.36633301 C-12.69639037 198.43974984 -12.69660994 197.51316668 -12.69683616 196.55850524 C-12.69705444 195.62979922 -12.69727271 194.7010932 -12.69749761 193.74424458 C-12.69794106 191.86253166 -12.69838763 189.98081875 -12.69883728 188.09910583 C-12.69905871 187.16572525 -12.69928014 186.23234467 -12.69950828 185.27067983 C-12.70346458 170.11409074 -12.72095123 154.95754948 -12.7441968 139.8009789 C-12.76789171 124.22558037 -12.78037157 108.6502059 -12.78153872 93.07478905 C-12.78245578 84.3350653 -12.7882171 75.59540415 -12.80635834 66.85569763 C-12.82173318 59.42311909 -12.82689477 51.99062255 -12.81862023 44.55803114 C-12.81470634 40.76596057 -12.8156797 36.9740553 -12.82967758 33.18200493 C-12.84470171 29.07458044 -12.83657347 24.96753061 -12.82609558 20.86009216 C-12.83415199 19.65787521 -12.84220839 18.45565826 -12.85050893 17.2170105 C-12.84391908 16.11780273 -12.83732924 15.01859497 -12.8305397 13.88607788 C-12.83113679 12.93812819 -12.83173388 11.99017851 -12.83234906 11.01350307 C-12.26456871 7.02445676 -10.47409687 4.37123672 -7.61226559 1.59941006 C-4.90726228 0.0774755 -3.09776511 0.00781457 0 0 Z " fill="#FEFDFD" transform="translate(2905.4586029052734,965.6123199462891)"/>
<path d="M0 0 C1.06687042 -0.00426498 2.13374084 -0.00852997 3.23294067 -0.01292419 C4.39824814 -0.01247101 5.5635556 -0.01201782 6.76417542 -0.0115509 C7.99543152 -0.01490952 9.22668762 -0.01826813 10.49525452 -0.02172852 C13.86923157 -0.02960039 17.24314709 -0.03290604 20.61712909 -0.0335443 C22.72580462 -0.03425547 24.83447372 -0.03639105 26.94314766 -0.03904152 C34.30162592 -0.04828995 41.66008607 -0.05237696 49.01856995 -0.05158997 C55.87479616 -0.05098904 62.73094373 -0.06154494 69.58715004 -0.07733363 C75.47686045 -0.09041274 81.36654517 -0.09577372 87.25626999 -0.09513456 C90.77252313 -0.09487971 94.28870634 -0.09772353 97.80494499 -0.10831261 C101.7262822 -0.11979961 105.64751161 -0.11524449 109.56886292 -0.10920715 C110.73214615 -0.11482666 111.89542938 -0.12044617 113.09396362 -0.12623596 C114.16365387 -0.12204147 115.23334412 -0.11784698 116.33544922 -0.11352539 C117.26218665 -0.11407016 118.18892408 -0.11461493 119.14374447 -0.1151762 C123.13968998 0.26919386 125.88682484 1.28932118 128.73121643 4.13371277 C129.77571021 7.18770836 129.85477365 10.03610042 129.85147095 13.24632263 C129.85353294 14.79436081 129.85353294 14.79436081 129.8556366 16.37367249 C129.85204132 17.50008148 129.84844604 18.62649048 129.84474182 19.78703308 C129.84488785 20.9775528 129.84503387 22.16807251 129.84518433 23.39466858 C129.84460729 26.65467551 129.83959408 29.91463943 129.83261037 33.17463779 C129.82635651 36.58325577 129.82577142 39.99187461 129.82458496 43.40049744 C129.82147764 49.85316161 129.81327232 56.30580882 129.80323547 62.75846553 C129.79205574 70.10545363 129.78655919 77.45244255 129.78154004 84.79943705 C129.77108922 99.91087173 129.75350136 115.02229055 129.73121643 130.13371277 C130.91028061 130.12483032 132.08934479 130.11594788 133.30413818 130.10679626 C144.41321632 130.02572563 155.52223447 129.96575456 166.63154125 129.92646408 C172.34303296 129.90558538 178.05428595 129.87726211 183.76564026 129.83195496 C189.27696391 129.78850799 194.78805788 129.76457779 200.29953957 129.7542038 C202.40271432 129.74681041 204.50587644 129.73237295 206.60895348 129.71079254 C209.55387456 129.68177427 212.4978454 129.67775616 215.44288635 129.67961121 C216.31323013 129.6652301 217.18357391 129.650849 218.08029175 129.6360321 C222.0214473 129.66291201 224.21824448 129.83589756 227.68673706 131.84959412 C232.36105995 137.07180778 232.02374654 142.28662135 232.00587463 148.96940613 C232.01354103 150.44834099 232.01354103 150.44834099 232.0213623 151.95715332 C232.03524954 155.21268299 232.03430222 158.46800077 232.03199768 161.72355652 C232.03588496 163.98890257 232.0402197 166.2542479 232.04498291 168.51959229 C232.05244317 173.26655948 232.05215513 178.0134523 232.04689026 182.76042175 C232.04109464 188.84124599 232.05803003 194.92176574 232.08123493 201.00253963 C232.09597155 205.68057025 232.09684408 210.35852751 232.0937252 215.03657722 C232.09423841 217.27844916 232.09947595 219.52032519 232.10953712 221.76217461 C232.1218831 224.89785898 232.11512063 228.03294989 232.10353088 231.16862488 C232.11117462 232.09297333 232.11881836 233.01732178 232.12669373 233.96968079 C232.07518732 240.27930827 231.20384791 244.54118616 226.69417286 249.2695303 C222.57692202 251.85995207 219.303872 251.66747374 214.53468323 251.58781433 C213.15833458 251.58869049 213.15833458 251.58869049 211.75418091 251.58958435 C208.72921068 251.58680344 205.70523271 251.55571076 202.68043518 251.52433777 C200.5800836 251.51687542 198.47972505 251.51118246 196.37936401 251.50718689 C190.85706792 251.49193021 185.33519409 251.45264773 179.81306458 251.40837097 C174.17581392 251.36741923 168.5384949 251.34917606 162.90113831 251.32902527 C151.84431238 251.28615382 140.78779955 251.21790177 129.73121643 251.13371277 C129.76843756 275.81258993 129.82837846 300.49132232 129.91511917 325.17007732 C129.95487189 336.62971916 129.98728353 348.08929269 130.00221252 359.54899597 C130.01524855 369.54116505 130.04226304 379.53318361 130.0858295 389.5252679 C130.10840035 394.81248982 130.12412973 400.0995264 130.12310028 405.38680077 C130.12235109 410.37158456 130.14040577 415.35595932 130.17238426 420.34063721 C130.18084657 422.16218511 130.18265836 423.98377908 130.17701912 425.80533791 C130.14185016 438.92055759 130.67108845 451.71467498 139.70387268 462.14152527 C155.09439188 477.26515685 175.45945377 478.45642388 195.82887268 478.30168152 C200.67335403 478.21231614 205.45317168 477.85302754 210.27345276 477.37614441 C225.07502036 475.91613084 225.07502036 475.91613084 229.48121643 479.50871277 C233.25186122 483.90779836 232.89102865 487.41941629 232.90821838 493.00212097 C232.91478958 493.92097076 232.92136078 494.83982056 232.9281311 495.78651428 C232.94788748 498.83584163 232.95953161 501.88511969 232.96949768 504.93449402 C232.97357321 505.97451254 232.97764874 507.01453106 232.98184776 508.08606529 C233.00271801 513.59014565 233.01701587 519.09420099 233.02638245 524.59831238 C233.03745177 530.28814933 233.07185518 535.97759572 233.11155415 541.6672945 C233.13767829 546.0381748 233.14607053 550.40896144 233.14966393 554.77991295 C233.15454038 556.87749559 233.16618432 558.97507376 233.18470192 561.07258034 C233.2090048 564.00774356 233.20814448 566.9418883 233.20118713 569.87712097 C233.22040222 571.17792351 233.22040222 571.17792351 233.24000549 572.50500488 C233.20510852 576.54222229 233.04905611 578.62072567 230.87689209 582.1265564 C215.9518256 596.08809908 173.16077643 597.5664538 154.16871643 597.32121277 C153.05158264 597.31114197 151.93444885 597.30107117 150.78346252 597.29069519 C147.43236109 597.251917 144.08199831 597.19350292 140.73121643 597.13371277 C139.78294983 597.1250116 138.83468323 597.11631042 137.85768127 597.10734558 C105.09714657 596.76479808 62.6184961 589.50233307 36.73121643 567.13371277 C36.73121643 566.47371277 36.73121643 565.81371277 36.73121643 565.13371277 C36.00934143 564.90683777 35.28746643 564.67996277 34.54371643 564.44621277 C29.87561663 562.26776619 26.67740333 558.91071698 24.73121643 554.13371277 C24.07121643 554.13371277 23.41121643 554.13371277 22.73121643 554.13371277 C22.73121643 553.47371277 22.73121643 552.81371277 22.73121643 552.13371277 C21.74121643 551.80371277 20.75121643 551.47371277 19.73121643 551.13371277 C-8.07578853 519.86656013 -13.46106278 475.80592293 -13.38230896 435.83952332 C-13.3820264 433.81792706 -13.38218617 431.7963307 -13.38275146 429.7747345 C-13.38303674 424.32318973 -13.37718373 418.87166725 -13.37017751 413.42012763 C-13.36389895 407.70932617 -13.36333662 401.99852411 -13.3621521 396.28771973 C-13.35905201 385.48981934 -13.35085653 374.69192916 -13.34080261 363.89403325 C-13.3296003 351.59408809 -13.32412067 339.29414243 -13.31910717 326.99419343 C-13.30867274 301.7073609 -13.29109904 276.42053741 -13.26878357 251.13371277 C-14.09706161 251.14259521 -14.92533966 251.15147766 -15.77871704 251.16062927 C-23.59137459 251.24083772 -31.40389349 251.30170883 -39.2168684 251.34096146 C-43.23345721 251.3618203 -47.2497053 251.39010608 -51.26609802 251.43547058 C-55.14350029 251.47899023 -59.02057521 251.50286269 -62.8982029 251.51322174 C-64.37618983 251.52060223 -65.8541592 251.53501491 -67.33200645 251.556633 C-69.40531748 251.58575038 -71.4772828 251.5896656 -73.55076599 251.58781433 C-74.72991074 251.59669678 -75.90905548 251.60557922 -77.12393188 251.61473083 C-81.49096264 250.94677543 -83.9521881 248.89768932 -86.56312561 245.39955139 C-87.64374735 241.92971952 -87.56349121 238.47939319 -87.55931091 234.8802948 C-87.56602814 234.05054138 -87.57274536 233.22078796 -87.57966614 232.3658905 C-87.59865543 229.62437442 -87.60257079 226.88310302 -87.60472107 224.14152527 C-87.61114835 222.23347371 -87.61787666 220.32542314 -87.62489319 218.41737366 C-87.63686828 214.41768611 -87.64057377 210.41808495 -87.63938904 206.41838074 C-87.63918584 201.29811674 -87.66648819 196.17840771 -87.70093346 191.05827522 C-87.7231923 187.11711594 -87.72722689 183.17609043 -87.72616959 179.23487473 C-87.72852706 177.3474575 -87.73735886 175.46003668 -87.75283432 173.57268143 C-87.77247384 170.93003444 -87.76666457 168.28858691 -87.75462341 165.6459198 C-87.76586243 164.86961212 -87.77710144 164.09330444 -87.78868103 163.29347229 C-87.72865164 158.09779524 -86.75184957 155.00971199 -83.26878357 151.13371277 C-80.49954224 149.78648376 -80.49954224 149.78648376 -77.34568787 148.96086121 C-75.61178299 148.4923877 -75.61178299 148.4923877 -73.84284973 148.01445007 C-72.07368698 147.57848511 -72.07368698 147.57848511 -70.26878357 147.13371277 C-69.19045258 146.85692688 -68.11212158 146.58014099 -67.00111389 146.29496765 C-63.6871151 145.46399856 -60.36543534 144.67602033 -57.03831482 143.89933777 C-55.84067001 143.61644897 -54.64302521 143.33356018 -53.40908813 143.042099 C-50.90635091 142.45189202 -48.40311468 141.86379728 -45.8993988 141.27775574 C-42.05189212 140.37683052 -38.20614446 139.46867202 -34.36058044 138.55949402 C-31.91992416 137.98485497 -29.47917239 137.41062126 -27.03831482 136.83683777 C-25.31038445 136.4291214 -25.31038445 136.4291214 -23.54754639 136.01316833 C-22.48851608 135.76580933 -21.42948578 135.51845032 -20.33836365 135.26359558 C-19.40494644 135.0447168 -18.47152924 134.82583801 -17.50982666 134.60032654 C-15.26878357 134.13371277 -15.26878357 134.13371277 -13.26878357 134.13371277 C-13.27247074 133.47256847 -13.27615791 132.81142418 -13.27995682 132.13024521 C-13.36827075 116.04767189 -13.43447497 99.96518283 -13.47603226 83.88242722 C-13.49666292 76.10493516 -13.52479295 68.32760489 -13.57054138 60.55021667 C-13.61039396 53.77191602 -13.63621272 46.99373252 -13.64513755 40.21531796 C-13.65035506 36.62570013 -13.66262796 33.0364175 -13.6917038 29.44690704 C-13.72388981 25.44099011 -13.72474402 21.43565698 -13.72288513 17.42961121 C-13.73726624 16.23774704 -13.75164734 15.04588287 -13.76646423 13.81790161 C-13.76096558 12.72697708 -13.75546692 11.63605255 -13.74980164 10.5120697 C-13.75348881 9.56446651 -13.75717598 8.61686333 -13.76097488 7.64054489 C-13.1126747 4.33861802 -11.89801711 3.17835894 -9.26878357 1.13371277 C-6.21832407 -0.04416539 -3.24812644 0.00587606 0 0 Z " fill="#FEFEFE" transform="translate(2065.268783569336,834.8662872314453)"/>
<path d="M0 0 C1.09066772 -0.01134979 2.18133545 -0.02269958 3.30505371 -0.03439331 C5.09273666 -0.02999741 5.09273666 -0.02999741 6.91653442 -0.0255127 C8.80490021 -0.03821701 8.80490021 -0.03821701 10.73141479 -0.05117798 C14.18194301 -0.07339223 17.63223242 -0.07632469 21.08282232 -0.07443047 C23.96545979 -0.07431074 26.8480467 -0.08287579 29.73067009 -0.09120798 C36.53321909 -0.11044231 43.33564537 -0.11332605 50.13821411 -0.10656738 C57.15024079 -0.09992861 64.16174117 -0.12278368 71.17366111 -0.15988111 C77.19844493 -0.19059657 83.22305962 -0.20193611 89.24792016 -0.1980443 C92.84426291 -0.19597839 96.44019624 -0.20143044 100.03646469 -0.22593689 C104.04892449 -0.25237604 108.06027633 -0.23846238 112.07278442 -0.2208252 C113.2605246 -0.23408844 114.44826477 -0.24735168 115.67199707 -0.26101685 C124.64964768 -0.16922808 124.64964768 -0.16922808 128.3460083 2.74536133 C131.95841854 6.94608819 131.75038889 10.15874116 131.75548172 15.53755569 C131.75753435 16.2733626 131.75958699 17.00916952 131.76170182 17.7672736 C131.76739172 20.25231599 131.76591213 22.73730329 131.76449585 25.22235107 C131.76707835 27.0142402 131.77009118 28.80612875 131.77349925 30.5980165 C131.78158608 35.53741164 131.78335976 40.47679227 131.78409672 45.41619325 C131.78594435 50.73739148 131.79349022 56.05858213 131.80023193 61.379776 C131.81382771 73.02225802 131.81984191 84.66473659 131.82424259 96.30722523 C131.8270029 103.57336564 131.83123987 110.83950472 131.83574677 118.10564423 C131.84794104 138.21342511 131.85824005 158.32120491 131.86162186 178.42898941 C131.86195121 180.36030631 131.86195121 180.36030631 131.86228721 182.33063971 C131.86250549 183.62130956 131.86272376 184.91197942 131.86294866 186.24176049 C131.86339213 188.85725927 131.86383869 191.47275806 131.86428833 194.08825684 C131.86462047 196.03433396 131.86462047 196.03433396 131.86495933 198.01972577 C131.86890826 219.04719939 131.88636449 240.07463838 131.90964785 261.10209861 C131.93334567 282.67755554 131.94582299 304.25299507 131.94698977 325.82846522 C131.94790742 337.94758537 131.95368217 350.06666039 131.97180939 362.18576813 C131.98718919 372.50462812 131.99234338 382.82342904 131.98407128 393.14229831 C131.98015727 398.40892386 131.98113101 403.67543039 131.99512863 408.9420414 C132.00782244 413.76209267 132.0067099 418.58193494 131.99453792 423.40198573 C131.99257306 425.14696394 131.99569557 426.89195672 132.00438228 428.6369144 C132.01543755 431.00749673 132.00801306 433.37733656 131.99599075 435.7478981 C131.99658784 437.06504059 131.99718493 438.38218308 131.99780011 439.73923898 C131.47037399 444.89737164 130.07182465 448.81889401 126.49905396 452.70690918 C119.42354492 456.85992535 111.36135346 456.67082036 103.37210083 456.57727051 C102.28308975 456.57262787 101.19407867 456.56798523 100.07206726 456.5632019 C96.49548856 456.54491846 92.91925598 456.51138072 89.34280396 456.47644043 C86.84374338 456.45786382 84.34467911 456.43977964 81.84561157 456.42216492 C76.61721286 456.38274257 71.3889575 456.33540298 66.16067505 456.28283691 C60.80296481 456.22897864 55.44533133 456.1875002 50.08743286 456.15783691 C43.59948644 456.12164815 37.11181939 456.0711058 30.62406921 456.00909996 C28.15864101 455.98744769 25.69316843 455.97033806 23.22767639 455.9579258 C19.77682069 455.93881396 16.32664394 455.90099312 12.87600708 455.85852051 C11.86587051 455.85681351 10.85573395 455.85510651 9.81498718 455.85334778 C3.34951351 455.74836354 -3.85174014 455.39072633 -8.99996185 451.01365376 C-13.48816949 445.93583896 -13.50122207 441.71116591 -13.51016712 435.15665627 C-13.51251935 434.42277266 -13.51487158 433.68888906 -13.51729509 432.93276656 C-13.52398075 430.46030006 -13.523527 427.98788616 -13.52311707 425.51541138 C-13.52641594 423.73019594 -13.53014155 421.94498125 -13.53425854 420.15976751 C-13.54428359 415.243506 -13.54799613 410.3272567 -13.55064785 405.41098642 C-13.55454927 400.11300035 -13.56412756 394.81502396 -13.57286072 389.51704407 C-13.59262721 376.71916815 -13.60269047 363.92129145 -13.61158851 351.12340409 C-13.61597012 345.10017632 -13.62133717 339.07694945 -13.62657738 333.05372238 C-13.643588 313.03854619 -13.6580838 293.02337056 -13.66532612 273.00818825 C-13.66723608 267.81368636 -13.6691564 262.61918448 -13.67111206 257.42468262 C-13.6715958 256.13358229 -13.67207954 254.84248196 -13.67257794 253.51225738 C-13.6808844 232.58115835 -13.70623245 211.65011636 -13.73869274 190.71904226 C-13.77172919 169.24186981 -13.78977169 147.76472639 -13.79297036 126.2875284 C-13.79513836 114.22377064 -13.80392964 102.16009611 -13.82943153 90.09636307 C-13.85109171 79.82616266 -13.85921199 69.55606571 -13.84946475 59.28584506 C-13.84490677 54.04360328 -13.84689312 48.80157516 -13.8662262 43.55936241 C-13.88376351 38.76278936 -13.88293729 33.96658733 -13.8673289 29.17001085 C-13.86493846 27.43248021 -13.86935024 25.69492451 -13.88115755 23.95743234 C-13.89619434 21.59911557 -13.88666228 19.24212752 -13.87093067 16.88384438 C-13.87239588 14.91748746 -13.87239588 14.91748746 -13.8738907 12.91140616 C-13.17747629 7.99261173 -10.98824385 4.95308685 -7.46194267 1.54405975 C-4.82316471 0.08975606 -3.00821952 0.01184224 0 0 Z " fill="#FEFEFE" transform="translate(1802.3759460449219,964.6055908203125)"/>
<path d="M0 0 C2.04393863 1.98055829 4.03159053 4.00713549 6 6.0625 C6.78246094 6.86042969 7.56492187 7.65835938 8.37109375 8.48046875 C24.31853166 25.51317653 28.85397172 46.37851806 28.3515625 69.00390625 C28.03042433 76.4721014 26.60646683 83.02931247 24 90.0625 C23.63777344 91.11308594 23.27554687 92.16367187 22.90234375 93.24609375 C20.07524068 100.76906293 16.07139438 106.86219934 11 113.0625 C10.1853125 114.06539062 9.370625 115.06828125 8.53125 116.1015625 C-4.46902029 131.47590084 -23.06469232 140.6872293 -43 143.0625 C-63.16631711 144.11960533 -84.43416378 140.63110236 -100.05859375 126.91015625 C-102.41840925 124.66429563 -104.7607637 122.42969266 -107 120.0625 C-108.175625 118.94875 -108.175625 118.94875 -109.375 117.8125 C-125.71512936 100.69426924 -131.51997959 80.41826819 -131.2109375 57.140625 C-130.55020444 35.16513273 -120.16888856 16.12013147 -104.48046875 1.234375 C-93.24910678 -8.59969942 -79.71871565 -15.29567924 -65 -17.9375 C-64.21882813 -18.07929687 -63.43765625 -18.22109375 -62.6328125 -18.3671875 C-40.62147578 -21.40578954 -16.38500996 -15.25675131 0 0 Z " fill="#FEFEFE" transform="translate(1914,786.9375)"/>
<path d="M0 0 C1.09796402 -0.00274933 2.19592804 -0.00549866 3.3271637 -0.0083313 C4.53197388 -0.00114075 5.73678406 0.0060498 6.97810364 0.01345825 C8.24650589 0.0131662 9.51490814 0.01287415 10.82174683 0.01257324 C14.30085359 0.0119988 17.77982278 0.02376782 21.25889754 0.03772116 C24.89440322 0.05021332 28.52991196 0.05139782 32.16543579 0.05377197 C39.05023038 0.0599912 45.93496155 0.07640799 52.8197282 0.09647095 C60.65760828 0.11881619 68.49549136 0.12981992 76.33339536 0.13986182 C92.45694529 0.16077385 108.58043141 0.1959584 124.70393372 0.24050903 C121.50967863 2.12236958 119.19816283 2.48109483 115.51107788 2.44737244 C114.46103577 2.44289597 113.41099365 2.43841949 112.32913208 2.43380737 C110.6092231 2.41123871 110.6092231 2.41123871 108.85456848 2.38821411 C107.03694504 2.376605 107.03694504 2.376605 105.18260193 2.36476135 C102.54972113 2.34709709 99.91712846 2.3258894 97.28434944 2.29914284 C93.1198861 2.25774241 88.95544931 2.23487198 84.79083252 2.2155304 C72.94941594 2.15797923 61.10823956 2.08043519 49.26716614 1.97317505 C42.7250814 1.91407423 36.18313324 1.8729227 29.64081424 1.85140723 C25.50213798 1.83677744 21.36443967 1.80000367 17.22608769 1.74688494 C14.04502443 1.71259637 10.86391646 1.71112817 7.68269348 1.70462036 C5.96582085 1.67294266 5.96582085 1.67294266 4.21426392 1.640625 C2.63497101 1.6465995 2.63497101 1.6465995 1.02377319 1.6526947 C0.11178445 1.6454881 -0.8002043 1.6382815 -1.73982906 1.63085651 C-5.74314882 2.58563252 -6.97341294 3.81026923 -9.29606628 7.24050903 C-10.04591192 11.48604258 -9.97261392 15.68854482 -9.93530273 19.99021912 C-9.94365841 21.301228 -9.95201409 22.61223688 -9.96062297 23.9629733 C-9.98313726 27.60038493 -9.97456093 31.23716247 -9.96093738 34.87459385 C-9.95168067 38.79757074 -9.97121414 42.7204161 -9.98725891 46.64335632 C-10.01111122 53.43957095 -10.01670458 60.23560421 -10.00991249 67.03185463 C-10.00011867 76.85806136 -10.01783687 86.68406677 -10.0422798 96.51024093 C-10.08118865 112.45231715 -10.09783348 128.39433586 -10.10050964 144.3364563 C-10.10315696 159.82313996 -10.11626957 175.3097564 -10.14347839 190.79641724 C-10.14515177 191.7509422 -10.14682515 192.70546717 -10.14854924 193.68891714 C-10.15700868 198.47746709 -10.1656741 203.26601663 -10.17444193 208.05456603 C-10.24691856 247.78320288 -10.28327659 287.51181075 -10.29606628 327.24050903 C-11.28606628 327.24050903 -12.27606628 327.24050903 -13.29606628 327.24050903 C-12.96606628 326.58050903 -12.63606628 325.92050903 -12.29606628 325.24050903 C-12.20538536 323.52195185 -12.17960192 321.79981928 -12.1841917 320.07887745 C-12.18466745 318.97845924 -12.1851432 317.87804103 -12.18563336 316.74427682 C-12.19409534 314.91586811 -12.19409534 314.91586811 -12.20272827 313.05052185 C-12.20469611 311.76334942 -12.20666395 310.47617698 -12.20869142 309.14999932 C-12.21307814 306.3152092 -12.22068329 303.48045146 -12.23069382 300.64567566 C-12.24697276 296.03383522 -12.25642822 291.42199512 -12.26504517 286.81013489 C-12.27818655 280.11377941 -12.29453254 273.41743801 -12.31259727 266.72109413 C-12.34076098 256.13766588 -12.35745466 245.55423385 -12.37207031 234.97077942 C-12.37719513 231.35160156 -12.38236909 227.73242376 -12.38753986 224.11324596 C-12.3888259 223.20869611 -12.39011193 222.30414626 -12.39143693 221.3721858 C-12.40617805 211.06958324 -12.42265577 200.76698388 -12.44035339 190.46438599 C-12.44196814 189.52231889 -12.44358288 188.5802518 -12.44524655 187.60963722 C-12.47177542 172.34699867 -12.50952892 157.08440422 -12.55054196 141.82179866 C-12.59227374 126.15860864 -12.61870342 110.49544188 -12.63174993 94.83220166 C-12.64034981 85.16773585 -12.66139952 75.50345761 -12.69837866 65.839058 C-12.72265196 59.21480606 -12.73234854 52.59063406 -12.7305586 45.96633825 C-12.72998064 42.14365653 -12.73595381 38.32127711 -12.75942993 34.49866104 C-12.78472587 30.35406239 -12.77903563 26.21008094 -12.77035522 22.06541443 C-12.78268871 20.8576289 -12.7950222 19.64984336 -12.80772942 18.40545827 C-12.76419834 11.80865463 -12.35293966 7.54871654 -8.29606628 2.24050903 C-4.95048658 0.01012257 -3.90212457 -0.00752579 0 0 Z " fill="#C8C7C3" transform="translate(3179.2960662841797,965.7594909667969)"/>
<path d="M0 0 C3.16507141 1.7854249 4.92929044 3.49585962 6 7 C5.93035319 10.96986829 5.85531271 13.14468729 3 16 C-1.24158146 17.41386049 -4.69975678 17.12805676 -9 16 C-12.75916716 13.94954519 -14.62598016 12.56102976 -17 9 C-17.375 6.5625 -17.375 6.5625 -17 4 C-11.83370096 -2.4578738 -7.3860843 -2.43482337 0 0 Z " fill="#F4F4F3" transform="translate(329,1392)"/>
<path d="M0 0 C5.61 0 11.22 0 17 0 C17.33 0.66 17.66 1.32 18 2 C19.65532623 3.01866229 21.32260138 4.01810813 23 5 C25 7 25 7 25.5 9.8125 C25 13 25 13 22.4375 15.8125 C19.02408287 18.27463694 16.26782526 19.07358319 12 19 C8.97270222 18.10994149 6.49118097 16.9453278 4 15 C2.32009449 11.89863597 1.7124407 10.25807192 2.5 6.8125 C4.59292085 4.28355397 7.02462852 3.29363977 10 2 C6.7 1.67 3.4 1.34 0 1 C0 0.67 0 0.34 0 0 Z " fill="#F2F2F0" transform="translate(352,1398)"/>
<path d="M0 0 C2.36293002 1.15632746 4.14983755 2.14983755 6 4 C6.375 7.3125 6.375 7.3125 6 11 C2.72144204 14.46590413 -1.05735027 16.89212282 -5.91796875 17.0703125 C-9.85545772 16.8191406 -11.7807162 16.15663129 -15.0625 13.8125 C-17 11 -17 11 -17.3125 8 C-14.17030224 0.81783369 -7.25456134 -0.95141788 0 0 Z " fill="#F5F5F4" transform="translate(413,1400)"/>
<path d="M0 0 C5.4875664 0.54875664 8.25753968 2.92181495 12.125 6.6875 C14.23299159 10.17379378 14.26948578 12.36753823 13.75 16.375 C12.75 18.3125 12.75 18.3125 10.75 19.375 C5.45087268 19.88781877 2.04218536 19.8624006 -2.25 16.375 C-2.25 15.715 -2.25 15.055 -2.25 14.375 C-2.91 14.375 -3.57 14.375 -4.25 14.375 C-7.43428654 8.12889948 -7.43428654 8.12889948 -6.5625 4.5625 C-4.58205528 1.26175881 -3.92379034 0.45274504 0 0 Z " fill="#F4F4F2" transform="translate(285.25,1374.625)"/>
<path d="M0 0 C3.34642169 2.20559612 5.78177129 4.12381773 7 8 C7.4375 11.5 7.4375 11.5 7 15 C4.9375 17.5625 4.9375 17.5625 2 19 C-2.49040159 18.51888554 -4.5411277 17.41897036 -7.875 14.375 C-10.54984961 10.12670945 -11.16163715 8.01075153 -11 3 C-7.62455657 -1.19373275 -5.01758094 -1.67252698 0 0 Z " fill="#F2F1F0" transform="translate(264,1342)"/>
<path d="M0 0 C3.60772115 2.66657651 4.80290416 4.28552758 6 8.625 C6 12 6 12 4.9375 13.9375 C2.02071062 15.53702966 0.28771358 15.51571978 -3 15 C-5.92413196 13.17241752 -8.43381139 11.13237723 -10 8 C-10.26140874 4.92844731 -10.43904748 2.800616 -8.9375 0.0625 C-5.70045894 -1.71265155 -3.46848095 -0.95682233 0 0 Z " fill="#F4F3F2" transform="translate(247,1317)"/>
<path d="M0 0 C1.43661437 0.00138269 1.43661437 0.00138269 2.90225124 0.00279331 C3.99746593 0.00141865 5.09268063 0.00004398 6.22108364 -0.00137234 C7.43308437 0.00222294 8.64508511 0.00581821 9.89381313 0.00952244 C11.16192333 0.00937641 12.43003353 0.00923038 13.73657131 0.00907993 C17.22401821 0.00879198 20.711431 0.01468838 24.19886994 0.02165389 C27.83973123 0.02788776 31.48059321 0.02849125 35.12145901 0.0296793 C42.02046371 0.03279252 48.91945264 0.04100578 55.81845039 0.05102879 C63.67080084 0.06219022 71.52315203 0.06770045 79.37550843 0.07272422 C95.53257953 0.0831884 111.68963475 0.10078766 127.84669399 0.12304783 C124.65167822 2.00648777 122.34881574 2.3607588 118.66056728 2.31645298 C117.08767185 2.30540279 117.08767185 2.30540279 115.48300076 2.29412937 C114.33796581 2.27594151 113.19293087 2.25775364 112.0131979 2.23901463 C110.19798389 2.22258663 110.19798389 2.22258663 108.3460989 2.20582676 C105.71649201 2.18146227 103.08716353 2.15360124 100.45767498 2.12055111 C96.2971657 2.06958468 92.13666733 2.03932119 87.97593594 2.01338291 C76.14543344 1.9372914 64.31526338 1.84828365 52.48536587 1.70483494 C45.94950982 1.6257514 39.41395203 1.57173001 32.87766302 1.54576904 C29.42066296 1.53094088 25.96485525 1.50304896 22.50830364 1.44406796 C18.65176195 1.37832635 14.79609712 1.36706973 10.93897915 1.36010838 C9.79799267 1.33179935 8.65700619 1.30349033 7.48144436 1.27432346 C1.73181925 1.20897955 1.73181925 1.20897955 -3.23093128 3.73289013 C-4.72908963 5.46289411 -5.99209357 7.15437688 -7.15330601 9.12304783 C-7.48330601 8.13304783 -7.81330601 7.14304783 -8.15330601 6.12304783 C-2.15330601 0.12304783 -2.15330601 0.12304783 0 0 Z " fill="#E4E3E1" transform="translate(3176.1533060073853,965.8769521713257)"/>
<path d="M0 0 C3.52549855 0.42893566 5.26701127 1.1359896 7.5 3.9375 C8.375 6.4375 8.375 6.4375 8.5 8.9375 C7.5 10.75 7.5 10.75 5.5 11.9375 C1.35096866 12.4753374 -0.77443581 12.37914777 -4.375 10.1875 C-7.5 6.87867647 -7.5 6.87867647 -7.5 3.9375 C-5.95278008 -0.15158121 -4.02363517 -0.32765759 0 0 Z " fill="#F0EFED" transform="translate(218.5,1299.0625)"/>
<path d="M0 0 C0.66 0.33 1.32 0.66 2 1 C-11.53 14.53 -25.06 28.06 -39 42 C-39.66 41.67 -40.32 41.34 -41 41 C-40.35933594 40.3709375 -39.71867188 39.741875 -39.05859375 39.09375 C-33.25648974 33.37055102 -33.25648974 33.37055102 -27.8125 27.3125 C-19.7087 17.85806667 -10.55622512 8.97294522 -1 1 C-0.67 0.67 -0.34 0.34 0 0 Z " fill="#E0DEDB" transform="translate(205,713)"/>
<path d="M0 0 C0.66 0.33 1.32 0.66 2 1 C-6.91 9.91 -15.82 18.82 -25 28 C-25.66 27.67 -26.32 27.34 -27 27 C-18.37875421 17.53860282 -9.55367699 8.52213379 0 0 Z " fill="#E8E7E4" transform="translate(1312,788)"/>
<path d="M0 0 C2.5625 1.625 2.5625 1.625 4 3 C3.01 3.495 3.01 3.495 2 4 C1.13375 3.690625 0.2675 3.38125 -0.625 3.0625 C-5.35542753 1.57329133 -9.77115479 1.10846192 -14.5 3 C-14.995 3.33 -15.49 3.66 -16 4 C-11.48588176 -2.77117737 -7.20816122 -2.42035505 0 0 Z " fill="#DBD9D4" transform="translate(329,1392)"/>
<path d="M0 0 C3.95471426 3.95471426 3.04707061 10.62259118 3.06591797 15.9230957 C3.06093814 18.94905607 3.03545812 21.97424014 3 25 C2.67 25 2.34 25 2 25 C0.7472283 16.61090382 -0.36011137 8.50262969 0 0 Z " fill="#DBD8D4" transform="translate(822,843)"/>
<path d="M0 0 C0.66 0.33 1.32 0.66 2 1 C-2.75 6.75 -2.75 6.75 -5 9 C-4.50769231 3.46153846 -4.50769231 3.46153846 -1.9375 1.125 C-1.298125 0.75375 -0.65875 0.3825 0 0 Z " fill="#D9D7D3" transform="translate(401,1402)"/>
<path d="M0 0 C0.99 0.33 1.98 0.66 3 1 C2.27683594 1.61488281 2.27683594 1.61488281 1.5390625 2.2421875 C0.90742188 2.78101563 0.27578125 3.31984375 -0.375 3.875 C-1.00148438 4.40867187 -1.62796875 4.94234375 -2.2734375 5.4921875 C-3.55836651 6.61432007 -4.79371975 7.79371975 -6 9 C-5.52797514 4.75177626 -3.03344482 2.80010291 0 0 Z " fill="#D2D1CD" transform="translate(3174,966)"/>
</svg>
