<?xml version="1.0" encoding="UTF-8"?>
<svg version="1.1" xmlns="http://www.w3.org/2000/svg" width="500" height="500">
<path d="M0 0 C0.86644638 -0.00426498 1.73289276 -0.00852997 2.62559509 -0.01292419 C3.5732222 -0.01247101 4.5208493 -0.01201782 5.49719238 -0.0115509 C6.99754784 -0.01658882 6.99754784 -0.01658882 8.5282135 -0.02172852 C11.84145339 -0.0312439 15.1546428 -0.0331818 18.46789551 -0.03425598 C20.7657066 -0.03746768 23.06351747 -0.04083169 25.36132812 -0.04434204 C30.17989578 -0.05033445 34.99844549 -0.05218178 39.8170166 -0.05158997 C46.00125522 -0.05148823 52.18537932 -0.06515183 58.36959076 -0.08236217 C63.11526013 -0.09346128 67.86090161 -0.09550983 72.60658264 -0.09498024 C74.88721614 -0.09616308 77.1678503 -0.10060175 79.44847107 -0.10831261 C82.6327628 -0.11807218 85.81680315 -0.11525062 89.00109863 -0.10920715 C89.94872574 -0.11482666 90.89635284 -0.12044617 91.87269592 -0.12623596 C92.7391423 -0.12204147 93.60558868 -0.11784698 94.49829102 -0.11352539 C95.62763439 -0.11434254 95.62763439 -0.11434254 96.77979279 -0.1151762 C98.74914551 0.13371277 98.74914551 0.13371277 101.74914551 2.13371277 C102.66094629 4.86911512 102.87820239 6.47999193 102.8895874 9.29518127 C102.89529755 10.14190903 102.90100769 10.98863678 102.90689087 11.86102295 C102.90856766 13.24969826 102.90856766 13.24969826 102.91027832 14.66642761 C102.91772568 16.13270348 102.91772568 16.13270348 102.92532349 17.62860107 C102.93994697 20.86729126 102.94674712 24.10593247 102.95227051 27.34465027 C102.95802141 29.5928294 102.96377915 31.84100852 102.96954346 34.08918762 C102.9800537 38.80520354 102.98589635 43.52120241 102.98937988 48.23722839 C102.99486738 54.2823168 103.01890093 60.32718029 103.04735184 66.3721981 C103.06596753 71.01672527 103.07118323 75.66119811 103.07271576 80.30575943 C103.07574477 82.53450883 103.08378161 84.76325722 103.09690094 86.99197006 C103.11394026 90.10889097 103.1120863 93.22526038 103.10559082 96.34220886 C103.1148056 97.26394394 103.12402039 98.18567902 103.1335144 99.13534546 C103.11000137 102.73405093 102.8635941 105.74341488 101.84759521 109.20822144 C98.33609646 112.43029552 94.40718214 111.80353499 89.81750488 111.733078 C88.79776077 111.73702072 87.77801666 111.74096344 86.72737122 111.74502563 C83.34871677 111.75175131 79.97140584 111.72253901 76.59289551 111.69230652 C74.25024681 111.68805803 71.90759391 111.68572803 69.56494141 111.6852417 C64.65202804 111.67906929 59.73956935 111.65633492 54.82678223 111.62077332 C48.52143425 111.57550039 42.2164986 111.56074789 35.91100311 111.5570364 C31.07265129 111.5526125 26.23438649 111.53731691 21.39607239 111.51815987 C19.07079283 111.50926467 16.74550393 111.502541 14.42021179 111.49799919 C11.17357699 111.48897979 7.92731927 111.46660862 4.68078613 111.44010925 C3.71445755 111.43944458 2.74812897 111.43877991 1.7525177 111.43809509 C0.42760567 111.4231324 0.42760567 111.4231324 -0.92407227 111.40786743 C-1.69171654 111.40321692 -2.45936081 111.39856642 -3.25026703 111.39377499 C-5.25085449 111.13371277 -5.25085449 111.13371277 -8.25085449 109.13371277 C-9.24935083 106.39594192 -9.37782622 103.82361288 -9.38456726 100.92791748 C-9.38883224 100.09664337 -9.39309723 99.26536926 -9.39749146 98.40890503 C-9.39703827 97.50541824 -9.39658508 96.60193146 -9.39611816 95.67106628 C-9.39947678 94.71291016 -9.40283539 93.75475403 -9.40629578 92.76756287 C-9.4157972 89.59923508 -9.41774841 86.43096017 -9.41882324 83.26261902 C-9.42203609 81.06070941 -9.42540019 78.85880002 -9.4289093 76.65689087 C-9.43489834 72.0410055 -9.4367494 67.42513886 -9.43615723 62.80924988 C-9.43605555 56.89315462 -9.44971441 50.97717924 -9.46692944 45.0611124 C-9.47804419 40.51352384 -9.4800766 35.96596433 -9.4795475 31.41836357 C-9.48072815 29.23707096 -9.48515468 27.05577762 -9.49287987 24.87449837 C-9.50267018 21.82483119 -9.49980554 18.77542511 -9.49377441 15.72575378 C-9.50220367 14.37355995 -9.50220367 14.37355995 -9.51080322 12.99404907 C-9.46984504 4.84932117 -9.46984504 4.84932117 -7.25085449 1.13371277 C-4.48758204 0.21262195 -2.84863548 0.00634068 0 0 Z M9.49914551 19.25871277 C7.44042701 22.07993849 7.44042701 22.07993849 7.74914551 25.69621277 C8.84684957 29.46957047 9.47391606 30.97895655 12.74914551 33.13371277 C16.69830701 33.6978787 18.79558391 33.78614965 22.12414551 31.50871277 C24.1643765 28.5268367 24.74914551 26.75920202 24.74914551 23.13371277 C23.33875639 19.72644814 23.33875639 19.72644814 20.74914551 17.13371277 C16.00925233 15.68272506 13.19595766 15.76727906 9.49914551 19.25871277 Z M51.74914551 48.13371277 C51.74914551 48.79371277 51.74914551 49.45371277 51.74914551 50.13371277 C51.08914551 50.13371277 50.42914551 50.13371277 49.74914551 50.13371277 C49.74914551 47.82371277 49.74914551 45.51371277 49.74914551 43.13371277 C45.12914551 43.13371277 40.50914551 43.13371277 35.74914551 43.13371277 C35.74914551 59.63371277 35.74914551 76.13371277 35.74914551 93.13371277 C40.36914551 93.13371277 44.98914551 93.13371277 49.74914551 93.13371277 C49.79812988 91.20527527 49.84711426 89.27683777 49.89758301 87.28996277 C49.97264468 84.73786589 50.04819103 82.18578323 50.12414551 79.63371277 C50.15508301 78.36527527 50.18602051 77.09683777 50.21789551 75.78996277 C50.42076937 69.29799912 50.68727269 63.31933123 52.74914551 57.13371277 C55.51290637 54.5825489 59.2134136 54.7215349 62.84680176 54.80949402 C65.81292434 55.31501388 67.04313923 56.74530398 68.74914551 59.13371277 C69.91317278 62.62579458 69.96033059 65.52519049 70.06555176 69.20793152 C70.08633286 69.89176407 70.10711395 70.57559662 70.12852478 71.28015137 C70.19380705 73.46040487 70.25280568 75.64077682 70.31164551 77.82121277 C70.35485104 79.30104263 70.39846598 80.7808606 70.44250488 82.26066589 C70.55023576 85.8848953 70.64946658 89.50921715 70.74914551 93.13371277 C75.36914551 93.13371277 79.98914551 93.13371277 84.74914551 93.13371277 C84.82398745 88.33231411 84.87807005 83.53126415 84.91394043 78.72941589 C84.92891317 77.10012385 84.94929872 75.47087132 84.97546387 73.84172058 C85.70431201 58.98464486 85.70431201 58.98464486 79.84680176 45.87980652 C79.1752002 45.44797058 78.50359863 45.01613464 77.81164551 44.57121277 C77.14262207 44.11617371 76.47359863 43.66113464 75.78430176 43.19230652 C66.87038724 38.55570223 58.76884182 41.73340142 51.74914551 48.13371277 Z M8.74914551 43.13371277 C8.74914551 59.63371277 8.74914551 76.13371277 8.74914551 93.13371277 C13.36914551 93.13371277 17.98914551 93.13371277 22.74914551 93.13371277 C22.74914551 76.63371277 22.74914551 60.13371277 22.74914551 43.13371277 C18.12914551 43.13371277 13.50914551 43.13371277 8.74914551 43.13371277 Z " fill="#FEFEFE" transform="translate(358.2508544921875,193.8662872314453)"/>
<path d="M0 0 C6.27 0 12.54 0 19 0 C19.02255131 10.28304929 19.04091525 20.56608228 19.05181217 30.84915066 C19.05704093 35.6234828 19.06413844 40.39779721 19.07543945 45.17211914 C19.0862686 49.77566262 19.09227689 54.37918899 19.09487724 58.98274422 C19.09673144 60.74309623 19.10035196 62.50344726 19.10573006 64.26379204 C19.11294086 66.72072277 19.11399093 69.17758195 19.11352539 71.63452148 C19.11712067 72.36963455 19.12071594 73.10474762 19.12442017 73.86213684 C19.11405216 78.88594784 19.11405216 78.88594784 18 80 C15.30345146 80.07319621 12.63308542 80.09242537 9.9375 80.0625 C9.17888672 80.05798828 8.42027344 80.05347656 7.63867188 80.04882812 C5.75908129 80.0370068 3.87953101 80.01907078 2 80 C1.34 78.68 0.68 77.36 0 76 C-0.78375 76.639375 -1.5675 77.27875 -2.375 77.9375 C-7.99896374 81.64720378 -14.66308225 81.40181696 -21.125 80.4375 C-28.14048931 78.77448762 -32.98100148 74.94311287 -36.875 68.9375 C-41.77926144 60.5522418 -42.4569143 51.5255802 -40.34765625 42.078125 C-37.74739101 34.8911258 -33.36249033 29.04386667 -26.8125 25.0625 C-17.44780445 21.52472612 -10.82062178 23.05381347 -1 26 C-0.67 17.42 -0.34 8.84 0 0 Z M-19.125 42.3125 C-22.64019511 47.35094632 -22.30232163 52.37214038 -21.8125 58.25 C-20.47627477 61.12802356 -18.65837887 62.3240655 -16 64 C-10.62024513 65.62407694 -7.50483899 64.74607721 -2.69921875 62.30078125 C0.06441219 60.18517411 0.85385258 58.0298295 1.3359375 54.6328125 C1.42781606 48.73420917 0.91632366 45.49225361 -3 41 C-8.14826603 38.42586699 -14.6361411 38.99074441 -19.125 42.3125 Z " fill="#FEFEFE" transform="translate(316,210)"/>
<path d="M0 0 C5.94 0 11.88 0 18 0 C18.33 14.19 18.66 28.38 19 43 C20.98 40.36 22.96 37.72 25 35 C25.66 35 26.32 35 27 35 C27.226875 34.46375 27.45375 33.9275 27.6875 33.375 C31.20330515 27.01306687 31.20330515 27.01306687 34 25 C37.79391201 24.25374272 41.46463634 24.43297609 45.3125 24.625 C46.33923828 24.65207031 47.36597656 24.67914063 48.42382812 24.70703125 C50.95137576 24.77756746 53.47460043 24.87606571 56 25 C55.15772867 29.15154717 53.37503017 31.04844168 50.4375 34.125 C45.67673169 39.21456958 41.27624361 44.49344049 37 50 C39.87006511 54.39669549 42.76298827 58.7533053 45.9375 62.9375 C48.28476806 66.03813527 50.60201066 69.15684075 52.875 72.3125 C53.47054687 73.13363281 54.06609375 73.95476562 54.6796875 74.80078125 C56 77 56 77 56 80 C52.417094 80.14533755 48.83494583 80.23407931 45.25 80.3125 C44.23421875 80.35439453 43.2184375 80.39628906 42.171875 80.43945312 C34.64206088 80.56329875 34.64206088 80.56329875 31.484375 77.79296875 C30.99453125 76.87128906 30.5046875 75.94960938 30 75 C29.24589844 73.76636719 29.24589844 73.76636719 28.4765625 72.5078125 C27.74566406 71.26644531 27.74566406 71.26644531 27 70 C25.20081244 67.41514101 23.36422152 64.86003746 21.5234375 62.3046875 C20 60 20 60 19 57 C18.67 64.59 18.34 72.18 18 80 C12.06 80 6.12 80 0 80 C0 53.6 0 27.2 0 0 Z " fill="#FEFEFE" transform="translate(165,210)"/>
<path d="M0 0 C6.94297447 5.63799934 9.65172163 12.76052075 10.765625 21.48828125 C10.765625 24.45828125 10.765625 27.42828125 10.765625 30.48828125 C-1.774375 30.48828125 -14.314375 30.48828125 -27.234375 30.48828125 C-26.244375 31.80828125 -25.254375 33.12828125 -24.234375 34.48828125 C-24.234375 35.14828125 -24.234375 35.80828125 -24.234375 36.48828125 C-19.64620231 38.01767215 -14.43840509 38.24229155 -9.859375 36.67578125 C-7.93526336 35.41283047 -7.93526336 35.41283047 -6.234375 32.48828125 C-2.47318024 33.11221776 -0.04477458 34.8360184 3.015625 37.05078125 C3.90765625 37.69144531 4.7996875 38.33210938 5.71875 38.9921875 C6.39421875 39.48589844 7.0696875 39.97960937 7.765625 40.48828125 C7.38635624 43.1035375 6.9959644 44.26795661 5.05859375 46.12109375 C4.36378906 46.61351562 3.66898437 47.1059375 2.953125 47.61328125 C2.26605469 48.11085938 1.57898438 48.6084375 0.87109375 49.12109375 C-6.66149157 54.01238292 -15.83971614 54.30673442 -24.609375 52.86328125 C-31.94582924 51.05627282 -38.21972896 46.9888647 -42.234375 40.48828125 C-46.55212604 32.57476377 -47.81931752 24.50597743 -45.50390625 15.71484375 C-42.34593611 7.13032083 -37.47718626 1.55596278 -29.234375 -2.51171875 C-19.72615955 -6.20404386 -8.5339665 -5.77385495 0 0 Z M-26.234375 13.48828125 C-26.564375 14.80828125 -26.894375 16.12828125 -27.234375 17.48828125 C-20.964375 17.48828125 -14.694375 17.48828125 -8.234375 17.48828125 C-10.12920982 12.27083807 -10.12920982 12.27083807 -14.234375 9.48828125 C-19.43620797 8.69669797 -22.2544356 10.15623896 -26.234375 13.48828125 Z " fill="#FEFEFE" transform="translate(262.234375,237.51171875)"/>
<path d="M0 0 C4.80282029 4.40258526 6.65350119 10.6570202 7.16296387 17.04257202 C7.36648518 21.86389669 7.34095374 26.68322661 7.28125 31.50756836 C7.24968966 34.08787277 7.2402303 36.66756728 7.234375 39.24804688 C7.22521932 40.8854242 7.21484818 42.52279529 7.203125 44.16015625 C7.19675018 45.31935326 7.19675018 45.31935326 7.19024658 46.50196838 C7.11727262 51.88272738 7.11727262 51.88272738 6 53 C4.65732587 53.08631874 3.31025678 53.10706473 1.96484375 53.09765625 C1.15595703 53.09443359 0.34707031 53.09121094 -0.48632812 53.08789062 C-1.33646484 53.07951172 -2.18660156 53.07113281 -3.0625 53.0625 C-3.91650391 53.05798828 -4.77050781 53.05347656 -5.65039062 53.04882812 C-7.76695663 53.03700373 -9.88348685 53.01906769 -12 53 C-12.01458252 51.96069336 -12.02916504 50.92138672 -12.04418945 49.85058594 C-12.10223181 45.98874785 -12.1794638 42.12748924 -12.26245117 38.26611328 C-12.2956727 36.59596167 -12.32371334 34.92569854 -12.34643555 33.25537109 C-12.38003334 30.85205637 -12.43234946 28.44976101 -12.48828125 26.046875 C-12.49467117 25.30193787 -12.5010611 24.55700073 -12.50764465 23.78948975 C-12.59651006 20.64495211 -12.8278397 18.3245409 -14.31323242 15.52441406 C-16.06014995 13.65283108 -16.06014995 13.65283108 -19.5 13.5625 C-22.87039897 13.73133801 -22.87039897 13.73133801 -24.875 15.1875 C-27.47702729 19.37965508 -27.17836064 24.47737657 -27.31640625 29.26953125 C-27.33718735 29.95053391 -27.35796844 30.63153656 -27.37937927 31.33317566 C-27.44437878 33.49285508 -27.50352712 35.65264846 -27.5625 37.8125 C-27.6057325 39.28321456 -27.64934825 40.75391791 -27.69335938 42.22460938 C-27.80000859 45.81628717 -27.90141349 49.40809082 -28 53 C-30.97922593 53.02683987 -33.95821295 53.04676037 -36.9375 53.0625 C-37.78763672 53.07087891 -38.63777344 53.07925781 -39.51367188 53.08789062 C-40.32255859 53.09111328 -41.13144531 53.09433594 -41.96484375 53.09765625 C-42.7137085 53.10289307 -43.46257324 53.10812988 -44.23413086 53.11352539 C-46 53 -46 53 -47 52 C-47.09353163 50.31198015 -47.11744791 48.62004793 -47.11352539 46.92944336 C-47.11344986 45.84839828 -47.11337433 44.76735321 -47.11329651 43.65354919 C-47.10813522 42.4775264 -47.10297394 41.3015036 -47.09765625 40.08984375 C-47.0962413 38.89267227 -47.09482635 37.69550079 -47.09336853 36.46205139 C-47.08774979 32.62050934 -47.07519411 28.77902457 -47.0625 24.9375 C-47.05748741 22.34049563 -47.05292409 19.74349035 -47.04882812 17.14648438 C-47.03777427 10.76430068 -47.02049708 4.38216007 -47 -2 C-41.06 -2 -35.12 -2 -29 -2 C-28.67 -0.68 -28.34 0.64 -28 2 C-27.4225 1.360625 -26.845 0.72125 -26.25 0.0625 C-19.87115512 -5.78477447 -6.93811897 -4.28096702 0 0 Z " fill="#FEFEFE" transform="translate(152,237)"/>
<path d="M0 0 C5.94 0 11.88 0 18 0 C18 20.46 18 40.92 18 62 C28.56 62 39.12 62 50 62 C50.020625 64.784375 50.04125 67.56875 50.0625 70.4375 C50.071604 71.31591553 50.08070801 72.19433105 50.09008789 73.09936523 C50.09723091 75.06645974 50.05031893 77.03353621 50 79 C49 80 49 80 47.01951599 80.12025452 C46.15125687 80.11803391 45.28299774 80.11581329 44.38842773 80.11352539 C43.3937146 80.11340454 42.39900146 80.11328369 41.37414551 80.11315918 C40.32126343 80.10804321 39.26838135 80.10292725 38.18359375 80.09765625 C37.22134888 80.09664917 36.259104 80.09564209 35.2677002 80.09460449 C31.65762142 80.0893546 28.04755957 80.07539348 24.4375 80.0625 C16.373125 80.041875 8.30875 80.02125 0 80 C0 53.6 0 27.2 0 0 Z " fill="#FEFEFE" transform="translate(25,210)"/>
<path d="M0 0 C6.27 0 12.54 0 19 0 C19.02463993 7.67211673 19.04283123 15.34421065 19.05493164 23.01635742 C19.05997377 25.62866619 19.06680725 28.24097211 19.07543945 30.85327148 C19.08751036 34.59880268 19.09322935 38.34429672 19.09765625 42.08984375 C19.10281754 43.26586655 19.10797882 44.44188934 19.11329651 45.65354919 C19.11340981 47.27511681 19.11340981 47.27511681 19.11352539 48.92944336 C19.115746 49.88652695 19.11796661 50.84361053 19.12025452 51.82969666 C19 54 19 54 18 55 C12.06 55 6.12 55 0 55 C0 36.85 0 18.7 0 0 Z " fill="#FEFEFE" transform="translate(80,235)"/>
<path d="M0 0 C2.87029869 1.79393668 4.49131638 2.98263276 6 6 C6.49337839 10.93378393 6.52463704 13.06919235 4.0625 17.4375 C0.62695683 20.31213816 -1.37478514 21.10141006 -5.77734375 21.28515625 C-8.71435677 20.90835142 -10.80389881 19.82110119 -12.90234375 17.72265625 C-15.04462864 14.36056502 -15.30931569 10.91112502 -15 7 C-13.75 3.5 -13.75 3.5 -12 1 C-7.9493707 -0.35020977 -4.23538911 -0.55728804 0 0 Z " fill="#FEFEFE" transform="translate(94,209)"/>
<path d="" fill="#FAFAFA" transform="translate(0,0)"/>
</svg>
