<?xml version="1.0" encoding="UTF-8"?>
<svg version="1.1" xmlns="http://www.w3.org/2000/svg" width="1024" height="1024">
<path d="M0 0 C0.495 1.485 0.495 1.485 1 3 C0.29037109 3.56654297 0.29037109 3.56654297 -0.43359375 4.14453125 C-15.96825664 17.07494266 -28.8430022 36.55284273 -31 57 C-32.40160459 75.71681211 -27.44151564 93.12038701 -15.1640625 107.58203125 C-14.09285156 108.77892578 -14.09285156 108.77892578 -13 110 C-12.30648437 110.78761719 -11.61296875 111.57523437 -10.8984375 112.38671875 C4.397867 128.70803334 25.42006696 140.06553442 44.5625 151.25 C45.378396 151.72840332 46.19429199 152.20680664 47.03491211 152.69970703 C47.78780518 153.13395996 48.54069824 153.56821289 49.31640625 154.015625 C50.31329468 154.59231934 50.31329468 154.59231934 51.33032227 155.18066406 C52.98926634 156.14684426 52.98926634 156.14684426 55 156 C55 156.66 55 157.32 55 158 C55.73234863 158.28125732 56.46469727 158.56251465 57.21923828 158.85229492 C59.74974101 159.89671049 62.0923693 161.05135655 64.4921875 162.36328125 C65.35046143 162.83137207 66.20873535 163.29946289 67.09301758 163.78173828 C68.01107178 164.28688965 68.92912598 164.79204102 69.875 165.3125 C70.83881592 165.84085449 71.80263184 166.36920898 72.7956543 166.91357422 C192.19973617 232.55542057 192.19973617 232.55542057 207.62548828 283.04736328 C214.78389834 308.37397025 212.78729613 333.73039476 200.2578125 357.11328125 C184.27023537 385.45871 155.4204995 402.74040787 125 412 C110.06472074 416.12325109 94.77672413 419.90001677 79.25 420.625 C78.54101562 420.66367187 77.83203125 420.70234375 77.1015625 420.7421875 C75.40135364 420.83409068 73.70071457 420.91798585 72 421 C72 420.01 72 419.02 72 418 C72.88558594 417.79246094 73.77117187 417.58492187 74.68359375 417.37109375 C96.96345493 411.8301085 117.57722659 402.02281522 135 387 C135.69480469 386.41863281 136.38960937 385.83726562 137.10546875 385.23828125 C151.60607529 372.06496135 159.15472606 351.03958839 160.16015625 331.9609375 C160.76154354 308.79445304 152.53453963 289.11906267 137 272 C136.34 271.67 135.68 271.34 135 271 C135 270.34 135 269.68 135 269 C134.12601563 268.61134766 134.12601563 268.61134766 133.234375 268.21484375 C130.8319521 266.9086313 129.21833992 265.456043 127.25 263.5625 C109.87674351 247.88695587 87.93562035 237.41315456 67.47265625 226.46875 C60.78196575 222.8898478 54.12368901 219.25356247 47.46948242 215.60742188 C42.38988117 212.83049392 37.29420995 210.08713861 32.1796875 207.375 C5.39441323 193.16953156 -21.30540787 178.67843269 -43.73828125 158.015625 C-45.94017709 155.98116928 -45.94017709 155.98116928 -48.29296875 154.359375 C-48.85628906 153.91078125 -49.41960937 153.4621875 -50 153 C-50 152.34 -50 151.68 -50 151 C-50.66 151 -51.32 151 -52 151 C-53.23339844 149.70581055 -53.23339844 149.70581055 -54.609375 147.88671875 C-55.3662561 146.88862183 -55.3662561 146.88862183 -56.13842773 145.87036133 C-56.93615601 144.78984497 -56.93615601 144.78984497 -57.75 143.6875 C-58.29277588 142.95490967 -58.83555176 142.22231934 -59.39477539 141.4675293 C-73.69808656 121.87704376 -80.7786636 99.06268702 -77.72314453 74.80175781 C-75.3408583 60.44045783 -68.53051552 46.92261329 -59 36 C-58.24074219 35.0409375 -57.48148437 34.081875 -56.69921875 33.09375 C-53.96388469 29.81340384 -50.87651428 27.22289981 -47.5 24.625 C-46.88326416 24.14949707 -46.26652832 23.67399414 -45.63110352 23.18408203 C-31.86652031 12.72814049 -16.50884389 5.16751292 0 0 Z " fill="#010101" transform="translate(456,332)"/>
<path d="M0 0 C2.85063724 1.42531862 2.97959968 3.08257048 4.08447266 6.04663086 C4.69843399 7.67752655 4.69843399 7.67752655 5.32479858 9.34136963 C5.76675568 10.53711609 6.20871277 11.73286255 6.6640625 12.96484375 C7.1322165 14.2157981 7.60103057 15.4665056 8.07046509 16.71697998 C9.07254294 19.39018343 10.07026151 22.06495737 11.0645752 24.74105835 C12.6319991 28.95934512 14.20904894 33.17398826 15.78808594 37.38793945 C17.37598413 41.62656128 18.9635352 45.86530818 20.54785156 50.10527039 C24.73747367 61.3164098 28.97693001 72.50791422 33.25 83.6875 C34.51076677 86.98944973 35.77101498 90.29159729 37.03125 93.59375 C37.34530792 94.41639343 37.65936584 95.23903687 37.98294067 96.08660889 C40.59040533 102.91928011 43.18695364 109.75606943 45.78125 116.59375 C46.60929045 118.77579873 47.43733408 120.95784625 48.26538086 123.13989258 C49.50032068 126.39418024 50.73520174 129.64849004 51.96975708 132.90292358 C55.90594391 143.27677026 59.84776324 153.64786108 63.87109375 163.98828125 C64.16071991 164.73301193 64.45034607 165.47774261 64.74874878 166.24504089 C66.06029904 169.61439771 67.37649918 172.98183212 68.70019531 176.34643555 C69.36486816 178.0466687 69.36486816 178.0466687 70.04296875 179.78125 C70.42477295 180.75126953 70.80657715 181.72128906 71.19995117 182.72070312 C72 185 72 185 72 187 C72.66 187.33 73.32 187.66 74 188 C74.640625 189.72045898 74.640625 189.72045898 75.25 192.05859375 C77.37985312 199.55943843 80.22152151 206.78465899 83 214.0625 C83.61287836 215.67477223 84.22566873 217.28707791 84.83837891 218.89941406 C94.64544898 244.66479502 104.66105079 270.35129566 114.69921875 296.02734375 C115.07125427 296.97926605 115.44328979 297.93118835 115.82659912 298.91195679 C117.58244824 303.40412794 119.33998462 307.8956228 121.10107422 312.38574219 C121.72497238 313.97980304 122.34883514 315.57387774 122.97265625 317.16796875 C123.2519548 317.87815659 123.53125336 318.58834442 123.8190155 319.3200531 C125.32777034 323.18009746 126.72628157 327.05611364 128 331 C124.94584794 329.63066589 122.84400023 328.06104406 120.4375 325.75 C102.63465989 309.70155932 81.26645807 296.12718307 60.6875 283.875 C59.65101318 283.25560547 58.61452637 282.63621094 57.54663086 281.99804688 C55.22735499 280.64955365 52.9886097 279.54630216 50.52392578 278.44067383 C42.4002075 274.57962317 38.51192298 271.09741469 35.40016174 262.61373901 C34.63110838 260.35590657 33.91020772 258.08554663 33.1875 255.8125 C32.62504865 254.17732493 32.0570186 252.54405984 31.48388672 250.91259766 C30.26417582 247.4296817 29.06727766 243.94003834 27.88330078 240.44482422 C25.03479986 232.11718433 21.85051105 223.91564613 18.703125 215.6975708 C16.88926799 210.9488266 15.09957787 206.19100124 13.30859375 201.43359375 C12.58844359 199.52194829 11.86822885 197.61032715 11.14794922 195.69873047 C10.61509308 194.28439728 10.61509308 194.28439728 10.07147217 192.8414917 C9.00907969 190.0240789 7.94452444 187.20749219 6.87939453 184.39111328 C-1.90617021 161.14916886 -10.28529477 137.83515251 -17.92529297 114.18994141 C-18.93500485 111.05631966 -18.93500485 111.05631966 -20.14111328 108.32177734 C-21 106 -21 106 -21 102 C-21.66 102 -22.32 102 -23 102 C-23.16770905 102.58990723 -23.33541809 103.17981445 -23.50820923 103.78759766 C-25.44608127 110.44072836 -27.74558124 116.90105577 -30.2109375 123.375 C-30.61583908 124.44631668 -31.02074066 125.51763336 -31.43791199 126.62141418 C-32.74693846 130.08221664 -34.06086278 133.54113535 -35.375 137 C-36.27880773 139.38621972 -37.18237078 141.77253213 -38.08569336 144.15893555 C-44.21215869 160.33367053 -50.37051985 176.49626317 -56.56640625 192.64453125 C-58.39895721 197.42193122 -60.21326226 202.20528626 -62 207 C-65.93704722 205.51610203 -67.29798413 203.43662904 -69.3125 199.8125 C-69.84488281 198.89082031 -70.37726563 197.96914063 -70.92578125 197.01953125 C-73.29161507 190.36938746 -69.99299936 183.7437703 -67.5703125 177.4921875 C-67.22370071 176.58065918 -66.87708893 175.66913086 -66.51997375 174.72998047 C-65.39490132 171.77575913 -64.25989556 168.82545977 -63.125 165.875 C-62.35089152 163.84550166 -61.57753885 161.81571487 -60.80493164 159.78564453 C-57.63556577 151.46548218 -54.44327022 143.15413224 -51.2522583 134.84225464 C-50.2141656 132.13578497 -49.17919002 129.42812979 -48.14471436 126.72027588 C-47.45065215 124.90931682 -46.75004585 123.10087017 -46.04931641 121.29248047 C-45.63987793 120.22400879 -45.23043945 119.15553711 -44.80859375 118.0546875 C-44.45595459 117.14187012 -44.10331543 116.22905273 -43.73999023 115.28857422 C-42.84617094 112.92512409 -42.84617094 112.92512409 -43 110 C-42.34 110 -41.68 110 -41 110 C-40.83346924 109.41589355 -40.66693848 108.83178711 -40.49536133 108.22998047 C-38.50712382 101.41526798 -36.17076835 94.77352371 -33.6875 88.125 C-33.25727539 86.96790527 -32.82705078 85.81081055 -32.38378906 84.61865234 C-28.47665189 74.1661668 -24.43246848 63.7680991 -20.37063599 53.37493896 C-13.43847617 35.63689903 -6.70647611 17.82437794 0 0 Z " fill="#010101" transform="translate(520,221)"/>
<path d="M0 0 C3.65079994 2.10197572 7.05418414 4.42989083 10.44921875 6.9140625 C12.02305291 8.07265807 12.02305291 8.07265807 14 9 C14.99 9.99 14.99 9.99 16 11 C25.27063433 18.60092331 35.83482622 24.69759225 46 31 C45.34 31.66 44.68 32.32 44 33 C39.5145739 31.61687931 35.03058466 30.22922644 30.54785156 28.83740234 C29.02349627 28.36480686 27.49875949 27.89344002 25.97363281 27.42333984 C23.77827508 26.74641402 21.58433884 26.06504415 19.390625 25.3828125 C18.7113092 25.17439728 18.03199341 24.96598206 17.33209229 24.75125122 C14.05853925 23.72855548 11.03978759 22.5784171 8 21 C7.60059204 22.93383545 7.60059204 22.93383545 7.19311523 24.90673828 C6.08286172 29.89106141 4.56187978 34.66456562 2.91015625 39.4921875 C2.60980469 40.38348358 2.30945313 41.27477966 2 42.19308472 C1.35744062 44.09966728 0.71303419 46.0056282 0.06692505 47.91101074 C-1.64412489 52.96020146 -3.33869604 58.01489625 -5.03125 63.0703125 C-5.3709935 64.08496582 -5.710737 65.09961914 -6.06077576 66.14501953 C-10.28138924 78.787351 -14.24596113 91.50749125 -18.19644165 104.23617554 C-19.85020518 109.55207332 -21.56849199 114.84545188 -23.29833984 120.13696289 C-38.301551 164.3091615 -38.301551 164.3091615 -31.6015625 209.1484375 C-26.09157555 218.95890206 -17.07594836 226.20412526 -7 231 C-7.33 231.66 -7.66 232.32 -8 233 C-56.18 232.67 -104.36 232.34 -154 232 C-150.99726936 229.99817957 -148.94748784 229.35712627 -145.5 228.4375 C-114.33873464 218.98524951 -90.18765899 197.74886042 -71.875 171.4375 C-71.1641626 170.41897949 -71.1641626 170.41897949 -70.43896484 169.37988281 C-70.00277832 168.73760742 -69.5665918 168.09533203 -69.1171875 167.43359375 C-68.73159668 166.86697021 -68.34600586 166.30034668 -67.94873047 165.71655273 C-66.90995903 163.83708747 -66.50052671 162.07814996 -66 160 C-65.00296294 158.99704581 -64.00232287 157.99767172 -63 157 C-54.3417839 143.08435331 -48.78821248 127.56160593 -42.90484619 112.33947754 C-41.95361331 109.88006733 -40.99934159 107.42185269 -40.04443359 104.96386719 C-33.62311906 88.43064665 -27.25800427 71.8758589 -20.89453125 55.3203125 C-20.56649002 54.46691284 -20.23844879 53.61351318 -19.90046692 52.73425293 C-18.31064987 48.59816122 -16.72135151 44.4618718 -15.13305664 40.32519531 C-11.31182759 30.37806868 -7.46020789 20.44387729 -3.5234375 10.54174805 C-3.19859375 9.719729 -2.87375 8.89770996 -2.5390625 8.05078125 C-2.12454834 7.00917847 -2.12454834 7.00917847 -1.70166016 5.9465332 C-0.99418926 3.98387994 -0.46961431 2.0314936 0 0 Z " fill="#030303" transform="translate(410,512)"/>
<path d="M0 0 C2.27979974 2.27979974 2.65988193 4.09233493 3.4440918 7.15283203 C11.70273689 39.23714229 32.7393922 69.1527027 61.20581055 86.20288086 C67.54995426 89.90542983 73.97214825 92.8199317 81 95 C77.52773066 97.31484623 76.26287494 97.23814513 72.17243958 97.20254517 C70.9566774 97.19688034 69.74091522 97.19121552 68.48831177 97.18537903 C67.13909682 97.1688575 65.78988423 97.15214262 64.44067383 97.13525391 C63.02153626 97.12482883 61.60239192 97.11529341 60.1832428 97.10658264 C56.32805661 97.08039117 52.47308368 97.04172524 48.61802888 97.00085878 C44.59019168 96.96026916 40.56227241 96.9310972 36.53434753 96.90072632 C28.90576382 96.84146492 21.27731006 96.77190025 13.64884919 96.69865549 C4.96460688 96.61577369 -3.71971772 96.54434495 -12.40406835 96.47388959 C-30.26950068 96.32869172 -48.13477848 96.16907406 -66 96 C-62.5159904 93.30180021 -58.85159093 91.30778346 -54.9375 89.3125 C-29.88515071 76.15222276 -14.62719185 56.26363086 -5.8125 29.6875 C-3.52266839 21.92115445 -2.27234535 13.98254883 -1 6 C-0.66775151 3.9998195 -0.33485569 1.99974568 0 0 Z " fill="#010101" transform="translate(687,648)"/>
<path d="M0 0 C0.66 0.33 1.32 0.66 2 1 C1.67 1.33 1.34 1.66 1 2 C44.56 2.33 88.12 2.66 133 3 C133 3.33 133 3.66 133 4 C87.13 4 41.26 4 -6 4 C-2 1 -2 1 0 0 Z " fill="#1D1E1E" transform="translate(627,740)"/>
<path d="M0 0 C0.66 0.33 1.32 0.66 2 1 C-3.28 6.28 -8.56 11.56 -14 17 C-14 12.08113186 -10.31173311 9.3948461 -7 6 C-4.72300284 3.91201998 -2.39497582 1.9550823 0 0 Z " fill="#141414" transform="translate(409,356)"/>
<path d="M0 0 C0.66 0.66 1.32 1.32 2 2 C1.34 2 0.68 2 0 2 C0 1.34 0 0.68 0 0 Z " fill="#1D1C1D" transform="translate(641,548)"/>
<path d="M0 0 C2 1 2 1 2 1 Z " fill="#353738" transform="translate(538,746)"/>
<path d="M0 0 C2 1 2 1 2 1 Z " fill="#212221" transform="translate(605,735)"/>
<path d="M0 0 C2 1 2 1 2 1 Z " fill="#212221" transform="translate(316,705)"/>
<path d="M0 0 C2 1 2 1 2 1 Z " fill="#1E1E1E" transform="translate(446,536)"/>
<path d="" fill="#191918" transform="translate(0,0)"/>
<path d="" fill="#1F1E1E" transform="translate(0,0)"/>
<path d="M0 0 C2 1 2 1 2 1 Z " fill="#212120" transform="translate(385,459)"/>
<path d="" fill="#1B191A" transform="translate(0,0)"/>
<path d="" fill="#1E1D1C" transform="translate(0,0)"/>
<path d="" fill="#191919" transform="translate(0,0)"/>
<path d="M0 0 C2 1 2 1 2 1 Z " fill="#242423" transform="translate(440,336)"/>
<path d="" fill="#191916" transform="translate(0,0)"/>
<path d="" fill="#242424" transform="translate(0,0)"/>
<path d="" fill="#2F2F2E" transform="translate(0,0)"/>
<path d="" fill="#303030" transform="translate(0,0)"/>
<path d="" fill="#333433" transform="translate(0,0)"/>
<path d="" fill="#333534" transform="translate(0,0)"/>
<path d="" fill="#2F2C2D" transform="translate(0,0)"/>
<path d="" fill="#2F3130" transform="translate(0,0)"/>
<path d="" fill="#292A25" transform="translate(0,0)"/>
<path d="" fill="#282727" transform="translate(0,0)"/>
<path d="" fill="#272629" transform="translate(0,0)"/>
<path d="" fill="#242425" transform="translate(0,0)"/>
<path d="" fill="#1D1E1C" transform="translate(0,0)"/>
<path d="" fill="#19191A" transform="translate(0,0)"/>
<path d="" fill="#191718" transform="translate(0,0)"/>
<path d="" fill="#252526" transform="translate(0,0)"/>
<path d="" fill="#242625" transform="translate(0,0)"/>
<path d="" fill="#252426" transform="translate(0,0)"/>
<path d="" fill="#212020" transform="translate(0,0)"/>
<path d="" fill="#221F21" transform="translate(0,0)"/>
<path d="" fill="#1E1D1E" transform="translate(0,0)"/>
<path d="" fill="#181A19" transform="translate(0,0)"/>
<path d="" fill="#1D1A1B" transform="translate(0,0)"/>
<path d="" fill="#1A1A19" transform="translate(0,0)"/>
<path d="" fill="#1B1919" transform="translate(0,0)"/>
<path d="" fill="#1D1C1A" transform="translate(0,0)"/>
<path d="" fill="#1F2020" transform="translate(0,0)"/>
<path d="" fill="#1D1F1F" transform="translate(0,0)"/>
<path d="" fill="#1F1F20" transform="translate(0,0)"/>
<path d="" fill="#1D1B1C" transform="translate(0,0)"/>
<path d="" fill="#1C1C1B" transform="translate(0,0)"/>
<path d="" fill="#222222" transform="translate(0,0)"/>
<path d="" fill="#222020" transform="translate(0,0)"/>
<path d="" fill="#222223" transform="translate(0,0)"/>
<path d="" fill="#1F1E1F" transform="translate(0,0)"/>
<path d="" fill="#1F1C1C" transform="translate(0,0)"/>
<path d="" fill="#1F1E1E" transform="translate(0,0)"/>
<path d="" fill="#1F1F20" transform="translate(0,0)"/>
<path d="" fill="#1C1D1A" transform="translate(0,0)"/>
<path d="" fill="#1F1D1C" transform="translate(0,0)"/>
<path d="" fill="#202020" transform="translate(0,0)"/>
<path d="" fill="#1F2020" transform="translate(0,0)"/>
<path d="" fill="#222120" transform="translate(0,0)"/>
<path d="" fill="#1D1D1C" transform="translate(0,0)"/>
<path d="" fill="#1C1D1B" transform="translate(0,0)"/>
<path d="" fill="#232024" transform="translate(0,0)"/>
<path d="" fill="#151114" transform="translate(0,0)"/>
<path d="" fill="#1A1B1A" transform="translate(0,0)"/>
<path d="" fill="#202020" transform="translate(0,0)"/>
<path d="" fill="#151416" transform="translate(0,0)"/>
<path d="" fill="#232323" transform="translate(0,0)"/>
<path d="" fill="#222122" transform="translate(0,0)"/>
<path d="" fill="#1F1E1E" transform="translate(0,0)"/>
<path d="" fill="#1C201D" transform="translate(0,0)"/>
<path d="" fill="#171716" transform="translate(0,0)"/>
<path d="" fill="#1E1E1D" transform="translate(0,0)"/>
<path d="" fill="#161514" transform="translate(0,0)"/>
<path d="" fill="#161616" transform="translate(0,0)"/>
<path d="" fill="#161816" transform="translate(0,0)"/>
<path d="" fill="#171718" transform="translate(0,0)"/>
<path d="" fill="#232524" transform="translate(0,0)"/>
<path d="" fill="#1F201E" transform="translate(0,0)"/>
<path d="" fill="#191916" transform="translate(0,0)"/>
<path d="" fill="#161716" transform="translate(0,0)"/>
<path d="" fill="#191A19" transform="translate(0,0)"/>
<path d="" fill="#181916" transform="translate(0,0)"/>
<path d="" fill="#202020" transform="translate(0,0)"/>
<path d="" fill="#1B1B19" transform="translate(0,0)"/>
<path d="" fill="#202122" transform="translate(0,0)"/>
<path d="" fill="#1C1A1A" transform="translate(0,0)"/>
<path d="" fill="#181715" transform="translate(0,0)"/>
<path d="" fill="#171A18" transform="translate(0,0)"/>
<path d="" fill="#181816" transform="translate(0,0)"/>
<path d="" fill="#1B1B18" transform="translate(0,0)"/>
<path d="" fill="#222422" transform="translate(0,0)"/>
<path d="" fill="#1C1C1E" transform="translate(0,0)"/>
<path d="" fill="#242424" transform="translate(0,0)"/>
<path d="" fill="#222322" transform="translate(0,0)"/>
<path d="" fill="#1B1B1A" transform="translate(0,0)"/>
<path d="" fill="#1B1B1A" transform="translate(0,0)"/>
<path d="" fill="#1C1A1B" transform="translate(0,0)"/>
<path d="" fill="#1B1A1B" transform="translate(0,0)"/>
<path d="" fill="#1C181B" transform="translate(0,0)"/>
<path d="" fill="#1D1D1C" transform="translate(0,0)"/>
<path d="" fill="#171817" transform="translate(0,0)"/>
<path d="" fill="#171816" transform="translate(0,0)"/>
<path d="" fill="#242624" transform="translate(0,0)"/>
<path d="" fill="#1B1A1B" transform="translate(0,0)"/>
<path d="" fill="#191A17" transform="translate(0,0)"/>
<path d="" fill="#1A1817" transform="translate(0,0)"/>
<path d="" fill="#1B1B1A" transform="translate(0,0)"/>
<path d="" fill="#1C1A1B" transform="translate(0,0)"/>
<path d="" fill="#1A1818" transform="translate(0,0)"/>
<path d="" fill="#272627" transform="translate(0,0)"/>
<path d="" fill="#151515" transform="translate(0,0)"/>
<path d="" fill="#1A1A1A" transform="translate(0,0)"/>
<path d="" fill="#1B1C1B" transform="translate(0,0)"/>
<path d="" fill="#171718" transform="translate(0,0)"/>
<path d="" fill="#181816" transform="translate(0,0)"/>
<path d="" fill="#181814" transform="translate(0,0)"/>
<path d="" fill="#1B1919" transform="translate(0,0)"/>
<path d="" fill="#262825" transform="translate(0,0)"/>
<path d="" fill="#191819" transform="translate(0,0)"/>
<path d="" fill="#383837" transform="translate(0,0)"/>
<path d="" fill="#2A2927" transform="translate(0,0)"/>
<path d="" fill="#171919" transform="translate(0,0)"/>
<path d="" fill="#211F1E" transform="translate(0,0)"/>
<path d="" fill="#1B1C1B" transform="translate(0,0)"/>
<path d="" fill="#121315" transform="translate(0,0)"/>
<path d="" fill="#181717" transform="translate(0,0)"/>
<path d="" fill="#1A181C" transform="translate(0,0)"/>
<path d="" fill="#181715" transform="translate(0,0)"/>
<path d="" fill="#1A1A1A" transform="translate(0,0)"/>
<path d="" fill="#1E1D1D" transform="translate(0,0)"/>
<path d="" fill="#1F201F" transform="translate(0,0)"/>
<path d="" fill="#262527" transform="translate(0,0)"/>
<path d="" fill="#3B3B3C" transform="translate(0,0)"/>
</svg>
