<svg width="311" height="77" viewBox="0 0 311 77" fill="none" xmlns="http://www.w3.org/2000/svg">
<g clip-path="url(#clip0_107_9335)">
<g clip-path="url(#clip1_107_9335)">
<path d="M28.1747 16.3305H33.2699C37.3239 16.3305 41.2119 14.7153 44.0786 11.8403C46.9452 8.96526 48.5556 5.06589 48.5556 1H28.1747C20.9675 1 14.0555 3.87141 8.95927 8.98256C3.86303 14.0938 1 21.026 1 28.2542C1 35.4825 3.86303 42.4147 8.95927 47.5258C14.0555 52.637 20.9675 55.5083 28.1747 55.5083V40.1779C25.0215 40.1779 21.9976 38.9216 19.7679 36.6855C17.5383 34.4494 16.2858 31.4165 16.2858 28.2542C16.2858 25.0918 17.5383 22.059 19.7679 19.8229C21.9976 17.5867 25.0215 16.3305 28.1747 16.3305Z" fill="white"/>
<path d="M107.999 1.03977C105.304 1.04021 102.657 1.75542 100.326 3.11288C97.9949 4.47034 96.0634 6.42178 94.7271 8.76936C89.6553 3.78137 82.8327 0.991208 75.7294 1.00002C68.5222 1.00002 61.6102 3.87144 56.5139 8.98259C51.4178 14.0938 48.5547 21.026 48.5547 28.2542C48.5547 35.4825 51.4178 42.4147 56.5139 47.5258C61.6102 52.637 68.5222 55.5084 75.7294 55.5084C80.3323 55.5068 84.8595 54.333 88.8866 52.0971C92.9136 49.8611 96.3085 46.6361 98.7533 42.7247C101.198 38.8131 102.612 34.343 102.864 29.7335C103.115 25.1239 102.195 20.5259 100.19 16.3702H107.999V1.03977ZM75.7294 40.1779C72.5762 40.1779 69.5522 38.9216 67.3226 36.6856C65.093 34.4494 63.8405 31.4166 63.8405 28.2542C63.8405 25.0918 65.093 22.059 67.3226 19.8229C69.5522 17.5867 72.5762 16.3305 75.7294 16.3305C78.8824 16.3305 81.9065 17.5867 84.136 19.8229C86.3656 22.059 87.6182 25.0918 87.6182 28.2542C87.6182 31.4166 86.3656 34.4494 84.136 36.6856C81.9065 38.9216 78.8824 40.1779 75.7294 40.1779Z" fill="white"/>
<path d="M60.4453 75.9489H75.7311C79.7851 75.9489 83.673 74.3337 86.5396 71.4587C89.4063 68.5837 91.0168 64.6843 91.0168 60.6184H75.7311C71.677 60.6184 67.7891 62.2336 64.9224 65.1086C62.0558 67.9837 60.4453 71.883 60.4453 75.9489Z" fill="white"/>
<path d="M40.9124 55.5085C45.1335 55.5085 48.5552 52.0766 48.5552 47.8432C48.5552 43.6099 45.1335 40.178 40.9124 40.178C36.6913 40.178 33.2695 43.6099 33.2695 47.8432C33.2695 52.0766 36.6913 55.5085 40.9124 55.5085Z" fill="white"/>
</g>
<path d="M130.536 19.2H143.982L150.192 37.614C150.948 39.81 151.542 41.538 151.974 42.798C152.442 44.058 152.802 45.012 153.054 45.66C153.342 44.976 153.702 44.022 154.134 42.798C154.566 41.538 155.16 39.81 155.916 37.614L162.234 19.2H175.194V57H166.986V41.448C166.986 37.992 166.986 35.418 166.986 33.726C166.986 32.034 166.986 29.514 166.986 26.166L156.456 57H149.166L138.744 26.22C138.744 29.676 138.744 32.25 138.744 33.942C138.744 35.598 138.744 38.1 138.744 41.448V57H130.536V19.2ZM182.112 19.2H210.678V26.004H190.32V34.212H205.71V40.908H190.32V50.196H210.678V57H182.112V19.2ZM215.601 19.2H229.857C233.493 19.2 236.823 19.956 239.847 21.468C242.907 22.944 245.337 25.086 247.137 27.894C248.937 30.702 249.837 34.014 249.837 37.83C249.837 41.754 248.937 45.174 247.137 48.09C245.337 50.97 242.907 53.184 239.847 54.732C236.823 56.244 233.493 57 229.857 57H215.601V19.2ZM229.479 50.196C232.143 50.196 234.357 49.746 236.121 48.846C237.885 47.91 239.199 46.542 240.063 44.742C240.927 42.906 241.359 40.656 241.359 37.992C241.359 35.58 240.927 33.474 240.063 31.674C239.199 29.874 237.903 28.488 236.175 27.516C234.447 26.508 232.323 26.004 229.803 26.004H223.809V50.196H229.479ZM254.468 19.2H262.676V57H254.468V19.2ZM279.757 19.2H290.395L304.705 57H295.633L287.479 33.024C286.903 31.368 286.471 30.144 286.183 29.352C285.931 28.56 285.535 27.372 284.995 25.788C284.743 26.508 284.419 27.444 284.023 28.596C283.663 29.748 283.159 31.242 282.511 33.078L274.141 57H265.339L279.757 19.2ZM276.247 41.34H293.743L296.065 48.144H273.925L276.247 41.34Z" fill="white"/>
</g>
<defs>
<clipPath id="clip0_107_9335">
<rect width="311" height="77" fill="white"/>
</clipPath>
<clipPath id="clip1_107_9335">
<rect width="107" height="75" fill="white" transform="translate(1 1)"/>
</clipPath>
</defs>
</svg>
