<svg width="8" height="8" viewBox="0 0 8 8" fill="none" xmlns="http://www.w3.org/2000/svg">
<path d="M6.76078 6.353C6.55686 6.353 6.4 6.19614 6.4 5.99222V5.14516C6.4 4.94124 6.24314 4.78437 6.02353 4.78437H5.17647H5.16078C4.95686 4.78437 4.8 4.94124 4.8 5.14516V7.92163H3.2V5.14516C3.2 4.94124 3.35686 4.78437 3.56078 4.78437H4.43922C4.64314 4.78437 4.8 4.62751 4.8 4.42359V3.57653C4.8 3.37261 4.97255 3.21575 5.17647 3.21575H6.02353C6.24314 3.21575 6.4 3.05888 6.4 2.85496V2.0079C6.4 1.80398 6.55686 1.64712 6.76078 1.64712H8V3.21575H6.76078C6.55686 3.21575 6.4 3.37261 6.4 3.57653V4.42359C6.4 4.62751 6.55686 4.78437 6.76078 4.78437H8V6.353H6.76078ZM0 6.353V4.78437H1.23922C1.44314 4.78437 1.6 4.62751 1.6 4.42359V3.57653C1.6 3.37261 1.44314 3.21575 1.23922 3.21575H0V1.64712H1.23922C1.44314 1.64712 1.6 1.80398 1.6 2.0079V2.85496C1.6 3.05888 1.75686 3.21575 1.97647 3.21575H2.82353C3.02745 3.21575 3.18431 3.05888 3.18431 2.85496L3.2 2.87065V2.85496V0.0784912H4.8V2.85496C4.8 3.05888 4.64314 3.21575 4.43922 3.21575H3.56078H3.5451C3.37255 3.21575 3.23137 3.34124 3.18431 3.4981C3.2 3.52947 3.2 3.54516 3.2 3.57653V4.42359C3.2 4.62751 3.02745 4.78437 2.82353 4.78437H1.97647C1.75686 4.78437 1.6 4.94124 1.6 5.14516V5.99222C1.6 6.19614 1.44314 6.353 1.23922 6.353H0Z" fill="white"/>
</svg>
