<svg width="741" height="114" viewBox="0 0 741 114" fill="none" xmlns="http://www.w3.org/2000/svg">
<g clip-path="url(#clip0_2_37)">
<path d="M106.763 44.4417C106.485 43.6347 105.924 42.9554 105.185 42.5288C104.446 42.1023 103.578 41.9571 102.74 42.1201C101.972 42.2819 101.289 42.7157 100.816 43.3417C100.342 43.9678 100.111 44.7439 100.164 45.5271C100.164 47.2005 100.028 48.7684 99.9529 50.2457C99.9529 56.2759 97.1355 64.6578 95.6138 66.8287C94.7163 68.4027 93.4864 69.7619 92.0097 70.8111C90.533 71.8604 88.8453 72.5746 87.0643 72.9037C85.2833 73.2328 83.4519 73.169 81.6981 72.7168C79.9443 72.2645 78.3103 71.4346 76.9101 70.2851C75.51 69.1356 74.3774 67.6942 73.5916 66.0615C72.8057 64.4288 72.3855 62.6441 72.3603 60.8321C72.3351 59.02 72.7054 57.2243 73.4455 55.5703C74.1855 53.9163 75.2775 52.4439 76.645 51.2558C83.0182 45.5271 94.2126 43.4015 94.2126 31.1151C94.2126 26.0799 90.235 21.2407 88.0654 18.9342C86.7396 17.502 84.9467 16.507 84.0879 14.9241C83.2291 13.3412 83.7414 9.25577 83.7414 9.25577C84.4796 4.3412 78.4229 2.6226 72.9236 5.77336C71.3739 6.64009 69.6211 7.07725 67.8462 7.03969C62.1203 5.58403 56.2097 4.98957 50.3088 5.27587C49.9282 5.29787 49.5478 5.22865 49.1992 5.07395C48.8507 4.91925 48.5441 4.68354 48.305 4.38642C47.1319 2.99107 45.6638 1.87374 44.0067 1.11509C42.3496 0.356444 40.5448 -0.0245932 38.7227 -0.000512663C33.1481 -0.000512663 27.468 3.01456 25.6148 9.22562C24.5482 12.544 22.5567 15.4886 19.8745 17.7131C12.8327 23.5346 7.37428 31.0414 4.00565 39.537C0.63703 48.0326 -0.532708 57.2419 0.604944 66.3106C1.7426 75.3793 5.15079 84.0136 10.5134 91.4126C15.876 98.8116 23.0192 104.736 31.2806 108.635C39.5419 112.535 48.6537 114.283 57.7707 113.719C66.8877 113.155 75.7146 110.296 83.4327 105.407C91.1507 100.519 97.5099 93.759 101.92 85.7551C106.331 77.7512 108.649 68.7625 108.661 59.6226C108.661 51.9643 107.938 47.8488 106.763 44.4417ZM37.894 3.84371C43.5892 3.84371 48.2146 7.74823 48.2146 12.5724C48.2146 17.3965 43.6193 15.8739 37.9242 15.8739C32.229 15.8739 28.4775 17.4719 28.4775 12.6327C28.4775 7.79346 32.2441 3.84371 37.894 3.84371ZM66.2944 83.9091C57.7881 83.9043 49.5992 80.677 43.3744 74.8764C37.1495 69.0759 33.3505 61.1321 32.7413 52.6427C32.0155 49.7891 30.4704 47.2106 28.2967 45.2256L23.9424 41.2759C23.6681 40.9982 23.4538 40.667 23.3127 40.3029C23.1716 39.9388 23.1068 39.5496 23.1224 39.1595C23.1379 38.7693 23.2334 38.3865 23.403 38.0348C23.5726 37.6831 23.8126 37.3701 24.1082 37.1151C24.6643 36.6325 25.3699 36.3569 26.1056 36.335C26.8414 36.313 27.5621 36.546 28.146 36.9945C33.2096 40.6018 39.2871 42.5074 45.5026 42.4367C54.4447 42.0052 63.1853 39.6284 71.1156 35.4719C81.1198 30.5874 88.1257 30.1201 88.1257 35.1854C88.1257 43.3714 64.4864 44.9694 64.1549 60.5271C63.8536 75.3915 73.5564 76.7332 73.5263 79.9744C73.5413 81.7382 73.0592 83.9091 66.2944 83.9091Z" fill="white"/>
<path d="M149.625 65.4561V84.9486H136.186V29.3657H157.957C164.556 29.3657 169.578 31.0039 173.024 34.2802C174.777 35.9957 176.147 38.0637 177.043 40.348C177.939 42.6322 178.341 45.0806 178.222 47.5315C178.274 50.7625 177.474 53.9503 175.901 56.7727C174.29 59.5317 171.893 61.7468 169.016 63.1345C165.561 64.7765 161.765 65.5723 157.942 65.4561H149.625ZM164.556 47.5315C164.556 42.6471 161.859 40.2199 156.466 40.2199H149.625V54.6772H156.466C161.859 54.6772 164.556 52.2953 164.556 47.5315Z" fill="white"/>
<path d="M222.502 77.4121C220.905 79.9626 218.616 82.0068 215.903 83.3065C212.607 84.8537 208.995 85.6075 205.356 85.5075C199.865 85.7469 194.449 84.1563 189.958 80.9849C187.972 79.4931 186.347 77.5737 185.202 75.3688C184.057 73.1639 183.422 70.7297 183.344 68.2462H197.657C197.758 70.1195 198.553 71.888 199.887 73.206C201.224 74.4296 202.988 75.0792 204.799 75.0151C206.298 75.0986 207.769 74.5897 208.897 73.598C209.399 73.1116 209.793 72.5244 210.053 71.8749C210.313 71.2253 210.432 70.5281 210.403 69.8291C210.421 69.1759 210.307 68.5257 210.069 67.9172C209.831 67.3087 209.473 66.7541 209.017 66.2864C208.04 65.296 206.878 64.5072 205.597 63.9648C204.241 63.3618 202.358 62.6382 199.947 61.809C197.006 60.8162 194.132 59.6328 191.344 58.2663C189.049 57.0815 187.078 55.3528 185.604 53.2312C183.909 50.6623 183.071 47.6227 183.208 44.5477C183.134 41.496 184.013 38.4971 185.725 35.9698C187.474 33.4998 189.888 31.5763 192.685 30.4221C195.908 29.0912 199.37 28.4394 202.855 28.5075C209.032 28.5075 213.944 29.9749 217.59 32.9095C219.399 34.3809 220.881 36.2133 221.942 38.2899C223.003 40.3664 223.619 42.6415 223.752 44.9698H209.213C209.05 43.33 208.345 41.7914 207.209 40.598C206.631 40.0473 205.947 39.6202 205.198 39.3429C204.45 39.0655 203.652 38.9437 202.855 38.9849C201.472 38.9214 200.114 39.3724 199.043 40.2512C198.141 41.1921 197.624 42.438 197.596 43.742C197.568 45.0459 198.031 46.3128 198.893 47.2914C199.813 48.251 200.921 49.0105 202.147 49.5226C203.458 50.1105 205.341 50.8342 207.812 51.7236C210.804 52.6912 213.715 53.8908 216.52 55.3116C218.838 56.5405 220.831 58.3023 222.336 60.4523C224.072 63.0818 224.917 66.2 224.747 69.3467C224.758 72.1911 223.981 74.9828 222.502 77.4121Z" fill="white"/>
<path d="M280.236 29.3657L260.966 66.4813V84.9486H247.407V66.4813L228.197 29.3657H243.61L254.292 51.9787L264.974 29.3657H280.236Z" fill="white"/>
<path d="M328.359 34.4014C333.054 38.2029 336.256 43.5424 337.399 49.4768H323.176C322.206 47.0262 320.521 44.9248 318.34 43.4467C316.045 41.934 313.343 41.1606 310.596 41.2306C308.785 41.1731 306.986 41.5335 305.337 42.2838C303.689 43.0341 302.235 44.1542 301.089 45.5572C298.542 48.856 297.26 52.9574 297.473 57.12C297.252 61.2697 298.536 65.3597 301.089 68.6376C302.239 70.0323 303.695 71.1438 305.344 71.8861C306.992 72.6285 308.789 72.9819 310.596 72.919C313.341 72.9944 316.044 72.2262 318.34 70.718C320.519 69.2385 322.204 67.1376 323.176 64.6879H337.399C336.242 70.6167 333.043 75.9515 328.359 79.7632C323.339 83.6337 317.124 85.6232 310.791 85.3863C305.814 85.4965 300.899 84.2567 296.569 81.7984C292.509 79.4418 289.218 75.96 287.092 71.7733C284.816 67.2134 283.673 62.1711 283.762 57.0748C283.673 51.9785 284.816 46.9362 287.092 42.3763C289.218 38.1895 292.509 34.7078 296.569 32.3512C300.902 29.8999 305.815 28.6606 310.791 28.7632C317.125 28.5383 323.338 30.5324 328.359 34.4014Z" fill="white"/>
<path d="M392.903 29.3657V84.9486H379.343V61.8079H358.25V84.9486H344.811V29.3657H358.25V50.9084H379.343V29.3657H392.903Z" fill="white"/>
<path d="M442.834 32.1545C447.066 34.551 450.561 38.0594 452.944 42.3002C455.442 46.7799 456.715 51.8394 456.635 56.9686C456.71 62.1124 455.42 67.184 452.899 71.6671C450.514 75.9244 447.007 79.4444 442.759 81.843C438.417 84.2464 433.536 85.5072 428.574 85.5072C423.612 85.5072 418.731 84.2464 414.389 81.843C410.149 79.4398 406.647 75.9205 404.264 71.6671C401.736 67.1867 400.446 62.1132 400.528 56.9686C400.44 51.8329 401.731 46.7676 404.264 42.3002C406.645 38.0732 410.122 34.5679 414.328 32.1545C418.687 29.7608 423.579 28.5059 428.551 28.5059C433.523 28.5059 438.415 29.7608 442.774 32.1545H442.834ZM418.095 45.2249C415.353 48.4789 413.957 52.6584 414.193 56.9083C413.962 61.1392 415.358 65.2981 418.095 68.5314C420.874 71.3014 424.636 72.8568 428.559 72.8568C432.481 72.8568 436.244 71.3014 439.022 68.5314C441.756 65.3181 443.162 61.1831 442.955 56.9686C443.179 52.7366 441.789 48.5773 439.068 45.3304C436.274 42.5721 432.506 41.0257 428.581 41.0257C424.656 41.0257 420.889 42.5721 418.095 45.3304V45.2249Z" fill="white"/>
<path d="M498.595 74.8034H477.773L474.308 84.9491H460.161L480.515 29.7582H496.004L516.343 84.9491H502.045L498.595 74.8034ZM495.13 64.5823L488.154 44.1401L481.224 64.5823H495.13Z" fill="white"/>
<path d="M564.481 34.4017C569.187 38.1935 572.392 43.5374 573.521 49.4771H559.298C558.328 47.0264 556.643 44.925 554.462 43.4469C552.173 41.9346 549.475 41.1611 546.733 41.2308C544.92 41.1734 543.119 41.5337 541.468 42.2839C539.817 43.0341 538.36 44.1541 537.211 45.5575C534.67 48.8583 533.393 52.9595 533.61 57.1203C533.385 61.2681 534.663 65.3579 537.211 68.6379C538.365 70.0329 539.823 71.1444 541.474 71.8866C543.125 72.6289 544.924 72.9822 546.733 72.9193C549.468 72.9914 552.16 72.2232 554.447 70.7183C556.626 69.2388 558.311 67.1378 559.283 64.6881H573.506C572.363 70.6226 569.161 75.9621 564.466 79.7635C559.457 83.6468 553.246 85.6523 546.913 85.4318C541.936 85.542 537.021 84.3022 532.691 81.8439C528.632 79.4905 525.345 76.0075 523.229 71.8188C520.939 67.2633 519.791 62.2187 519.884 57.1203C519.791 52.0218 520.939 46.9773 523.229 42.4218C525.345 38.2331 528.632 34.7501 532.691 32.3966C537.024 29.9453 541.937 28.706 546.913 28.8087C553.242 28.5632 559.457 30.5419 564.481 34.4017Z" fill="white"/>
<path d="M620.936 29.3657V40.0541H605.869V84.9486H592.309V40.0541H577.378V29.3657H620.936Z" fill="white"/>
<path d="M640.025 29.3657V84.9486H626.601V29.3657H640.025Z" fill="white"/>
<path d="M659.671 29.3657L673.231 71.1998L686.791 29.3657H701.164L681.909 84.9486H664.553L645.298 29.3657H659.671Z" fill="white"/>
<path d="M719.861 40.0541V51.6923H738.649V61.8079H719.861V74.1546H740.954V84.9185H706.422V29.3657H741V40.0541H719.861Z" fill="white"/>
</g>
<defs>
<clipPath id="clip0_2_37">
<rect width="741" height="114" fill="white"/>
</clipPath>
</defs>
</svg>
